<?xml version="1.0" encoding="UTF-8" standalone="no"?>
<!-- Created with Inkscape (http://www.inkscape.org/) -->

<svg
   xmlns:dc="http://purl.org/dc/elements/1.1/"
   xmlns:cc="http://creativecommons.org/ns#"
   xmlns:rdf="http://www.w3.org/1999/02/22-rdf-syntax-ns#"
   xmlns:svg="http://www.w3.org/2000/svg"
   xmlns="http://www.w3.org/2000/svg"
   xmlns:sodipodi="http://sodipodi.sourceforge.net/DTD/sodipodi-0.dtd"
   xmlns:inkscape="http://www.inkscape.org/namespaces/inkscape"
   width="628.36981"
   height="677.00293"
   id="svg2"
   version="1.1"
   inkscape:version="0.92.4 (5da689c313, 2019-01-14)"
   sodipodi:docname="smiling-donkey-original.svg">
  <title
     id="title3930">Sciccareddu</title>
  <defs
     id="defs4" />
  <sodipodi:namedview
     id="base"
     pagecolor="#ffffff"
     bordercolor="#666666"
     borderopacity="1.0"
     inkscape:pageopacity="0.0"
     inkscape:pageshadow="2"
     inkscape:zoom="0.7"
     inkscape:cx="255.29835"
     inkscape:cy="316.35202"
     inkscape:document-units="px"
     inkscape:current-layer="g3013"
     showgrid="false"
     inkscape:window-width="1360"
     inkscape:window-height="745"
     inkscape:window-x="-8"
     inkscape:window-y="-8"
     inkscape:window-maximized="1"
     inkscape:showpageshadow="true"
     fit-margin-top="0"
     fit-margin-left="0"
     fit-margin-right="0"
     fit-margin-bottom="0" />
  <metadata
     id="metadata7">
    <rdf:RDF>
      <cc:Work
         rdf:about="">
        <dc:format>image/svg+xml</dc:format>
        <dc:type
           rdf:resource="http://purl.org/dc/dcmitype/StillImage" />
        <dc:title>Sciccareddu</dc:title>
        <dc:date>21/04/2015</dc:date>
        <dc:creator>
          <cc:Agent>
            <dc:title>Miriam Scalici</dc:title>
          </cc:Agent>
        </dc:creator>
        <dc:rights>
          <cc:Agent>
            <dc:title />
          </cc:Agent>
        </dc:rights>
      </cc:Work>
    </rdf:RDF>
  </metadata>
  <g
     inkscape:label="Livello 1"
     inkscape:groupmode="layer"
     id="layer1"
     transform="translate(-69.881305,-187.25471)">
    <g
       id="g3899"
       transform="matrix(0.98713964,0,0,0.98713964,4.9391636,6.7614083)">
      <g
         id="g3013">
        <path
           style="fill:#edd5bd;fill-opacity:1;stroke:#000000;stroke-width:1px;stroke-linecap:round;stroke-linejoin:round;stroke-opacity:1"
           d="m 195.07148,486.7888 c 3.82668,-0.55756 12.09103,-2.00581 18.07071,0.89811 15.63481,10.91118 4.51999,32.15678 -2.55077,40.11024 -9.35168,10.42847 -22.36918,19.24509 -39.46247,26.43727 -17.2465,7.14899 -32.44579,3.33982 -19.60607,-13.00943 -22.86831,0.48981 -55.237517,3.68148 -52.587235,-18.80642 -1.594451,2.84469 1.945255,10.86901 2.502855,11.24352 0.92204,0.6193 -3.357173,-0.47418 -10.524771,-5.56908 -16.200922,-12.3475 -17.375873,-29.08399 -10.749279,-47.24874 -1.93426,4.6866 -2.793813,10.00148 -3.77801,15.63815 -9.32278,-13.6878 -7.427731,-22.22505 3.036804,-32.66037 1.394146,-1.20025 4.747431,-4.00879 10.227795,-3.15672 1.180463,0.37481 3.732128,0.71623 2.630686,2.04816 -2.392737,2.89344 -6.677929,9.1016 -7.587358,11.57032 2.234808,-4.3478 4.817182,-8.4639 8.059871,-12.13978 16.669292,-16.43895 26.038452,-20.7133 48.605842,-24.60761 25.01347,12.84912 33.11686,36.12106 53.7114,49.25238 z"
           id="path3853"
           inkscape:connector-curvature="0"
           sodipodi:nodetypes="ccccccscccccscccc" />
        <path
           style="fill:#a08d7c;fill-opacity:1;stroke:#000000;stroke-width:1px;stroke-linecap:round;stroke-linejoin:round;stroke-opacity:1"
           d="m 298.50008,328.08281 5.55584,-24.24366 c 5.80837,-12.83732 11.61675,-18.10387 17.42512,-24.49621 8.65946,-9.60529 90.37408,-56.89686 136.11806,-71.46829 6.38545,-2.98224 21.45201,-0.62392 12.12183,11.11168 l -33.33503,35.35534 c -8.57092,8.97514 -16.00135,19.31886 -21.2132,32.32488 -6.69867,18.87046 -16.87172,36.35116 -30.30458,52.52794 -8.33335,8.32891 -17.56511,15.60966 -31.54932,17.34591 7.01262,2.37056 10.1323,7.91853 11.85135,21.54496 -0.16738,18.33764 -5.98172,36.60214 -8.5863,58.08377 -10.64414,97.31594 99.25333,69.74709 161.60338,56.27268 17.87726,-3.90875 47.42727,-3.79772 65.9768,2.37745 22.45887,7.82731 31.78204,15.87325 43.64578,24.68745 12.90736,8.80121 43.88842,0.33064 50.00255,-18.68782 6.55275,-19.12269 -0.65909,-43.70677 -19.95052,-54.29569 -31.61249,-13.13346 -95.80116,42.67693 -77.27666,12.37436 0.31815,0.31781 -17.95953,5.64722 -14.64722,0.50508 17.27492,-20.84595 50.18635,-28.89022 68.43784,-32.32488 41.72597,-5.36024 69.03988,25.12328 62.37692,68.69037 -2.63532,23.00735 -26.43333,45.3107 -51.51778,44.95178 4.84266,31.94999 -1.16149,65.65864 -16.41498,87.63074 -17.54182,23.01553 -35.34109,42.55549 -53.03301,66.41753 -13.55839,22.48279 -11.6578,25.64186 -12.37436,32.07235 1.03084,6.30664 2.37749,12.4548 1.51522,24.49619 -0.8127,7.12615 -0.11721,12.74413 -7.3236,26.26397 -1.71563,5.29451 -2.63958,11.22236 -1.01016,19.1929 2.81824,7.85061 5.57331,15.73281 7.07107,24.24366 0.13516,12.84444 -15.15455,0.12256 -19.69797,-3.03046 -15.9294,3.5593 -15.92544,-9.87848 -29.54697,-11.36422 -29.30008,11.35271 -12.02006,-6.48612 2.27285,-17.67767 2.47756,-2.05386 6.26667,-8.54161 2.52538,-16.41497 -2.4502,-7.20714 -5.00969,-12.93837 -6.06092,-23.23351 -1.20185,-6.02835 5.21656,-20.40142 6.06092,-29.29442 -6.45372,-13.32844 -8.19276,-19.38039 -20.32035,-35.63326 -2.80855,-1.89318 -13.63304,-5.39937 -26.90428,-2.06889 -37.31559,10.83043 -102.15761,3.95259 -126.34304,-9.77502 2.29059,15.68454 3.43316,23.15159 1.5892,41.16371 -1.81616,20.0984 -10.60349,34.77306 -14.89975,52.78047 -1.38576,11.71066 3.3036,21.90253 7.07107,32.32488 3.03275,7.33856 10.02864,23.65529 -0.50508,19.1929 -4.97198,-4.0091 -2.60533,-2.86041 -10.6066,-8.08122 -5.82868,-0.0491 -7.6676,3.57459 -12.12183,3.03046 -9.30999,-3.76748 -8.85206,-11.92739 -14.14214,-13.88959 -4.82457,0.091 -12.69428,2.35704 -22.22335,5.80837 -8.5425,3.01172 -9.88355,-3.39752 -3.78808,-7.82868 12.75052,-8.57858 15.40744,-10.00003 22.8151,-19.47082 -0.71652,-13.78957 -2.68655,-3.08347 -6.12963,-39.03445 0.2182,-16.04357 6.35727,-20.32758 6.2955,-37.71176 1.00741,-19.11445 -15.10947,-26.51919 -26.6211,-50.98733 -6.68188,-29.89558 -1.05585,-48.47763 3.38759,-78.3122 2.17557,-21.63275 -9.02273,-50.32223 -30.80965,-60.60915 -5.8825,-0.10416 -20.02962,5.13784 -34.36313,16.85878 5.17937,-6.62284 10.25509,-16.353 10.6193,-21.4351 0.8569,-25.50668 -18.81851,-20.47631 -26.17469,-19.81791 -12.37107,-5.54807 -32.31371,-38.40136 -53.56084,-49.22435 6.10151,-8.96913 9.29492,-19.54094 14.45967,-31.05847 3.93369,-10.30926 0.38025,-24.09777 10.10152,-40.27984 6.64243,-10.59479 29.11566,-22.80287 30.93593,-24.74874 -9.38145,19.32318 34.79558,-8.09241 40.15356,-9.84898 -12.86702,7.67067 -22.62546,24.86929 -5.80838,20.96066 19.02455,-2.78994 26.14889,-12.37999 36.36549,-20.20305 -12.69493,16.79174 3.12159,9.33174 7.82868,5.05076 l 17.1726,-15.15229 c -7.98938,10.6961 -3.63836,13.07534 5.80838,6.06092 z"
           id="path3866"
           inkscape:connector-curvature="0"
           sodipodi:nodetypes="ccccccccccccccccccccccccccccccccccccccccccccccccccccccccccccccccc" />
        <path
           style="fill:none;stroke:#000000;stroke-width:1px;stroke-linecap:round;stroke-linejoin:round;stroke-opacity:1"
           d="m 359.10923,614.46105 c -8.70826,21.20902 -12.36176,36.19505 -13.47381,57.93585 2.08619,-10.18557 5.3468,-19.66022 11.4535,-28.64142"
           id="path3868"
           inkscape:connector-curvature="0"
           sodipodi:nodetypes="ccc" />
        <path
           style="fill:none;stroke:#000000;stroke-width:1px;stroke-linecap:round;stroke-linejoin:miter;stroke-opacity:1"
           d="m 519.97603,581.12602 c -28.66351,24.42138 -35.62505,62.93834 -21.23116,102.91936"
           id="path3870"
           inkscape:connector-curvature="0"
           sodipodi:nodetypes="cc" />
        <path
           style="fill:#8e7762;fill-opacity:1;stroke:#000000;stroke-width:1px;stroke-linecap:round;stroke-linejoin:round;stroke-opacity:1"
           d="m 470.81031,682.81441 c 4.40354,9.46984 6.67278,10.28844 13.49131,20.25907 4.38272,8.78387 7.95884,13.69848 8.2344,23.51451 -4.08379,15.19292 -6.10481,31.71925 -2.70133,45.72472 -5.88133,5.41421 -22.39417,18.77349 -6.81852,19.12944 4.44702,-1.25889 8.32817,-5.12753 12.20106,-6.06354 7.69635,-1.55628 11.27543,11.36341 13.08077,10.14793 2.52402,-2.84356 17.81631,-7.73897 9.72207,-25.09626 -1.37101,-6.92019 -5.10599,-12.50743 -4.56889,-24.99693 1.95735,-11.26765 5.34833,-20.26977 5.34663,-25.14613 -0.33669,-5.12576 -12.21039,-24.98452 -19.60606,-36.00617 -7.74577,-2.51535 -15.52024,-4.99679 -28.38144,-1.46664 z"
           id="path3872"
           inkscape:connector-curvature="0"
           sodipodi:nodetypes="cccccccccccc" />
        <path
           style="fill:#2c2424;fill-opacity:1;stroke:#000000;stroke-width:0.95490527px;stroke-linecap:round;stroke-linejoin:round;stroke-opacity:1"
           d="m 498.55478,807.26088 c -18.04316,15.21027 -21.22949,28.15186 -21.93755,45.50328 0.67698,11.17472 65.73704,7.69272 75.18041,0.71159 5.86592,-8.90024 4.81116,-25.64388 4.37799,-27.77137 -2.60156,-1.35526 -8.31549,-5.37631 -12.32727,-8.92164 -5.20037,2.11037 -9.50124,0.94354 -13.27452,-2.14553 -5.04512,-4.18319 -10.16158,-6.70617 -15.3266,-8.09949 -17.03517,5.53521 -17.50602,2.65494 -16.69246,0.72316 z"
           id="path3874"
           inkscape:connector-curvature="0"
           sodipodi:nodetypes="cccccccc" />
        <path
           style="fill:#161212;fill-opacity:1;stroke:#000000;stroke-width:1px;stroke-linecap:round;stroke-linejoin:round;stroke-opacity:1"
           d="m 476.67471,789.59997 c -15.48638,14.88154 -23.31848,36.76924 -20.96965,46.21076 1.43289,2.64145 2.98963,4.55405 22.39559,2.95648 3.48878,-11.62174 10.35494,-21.7083 20.00172,-31.02782 1.53579,-5.16669 5.95789,-8.2207 9.68312,-11.87673 -5.08378,-6.47228 -6.58919,-12.27875 -13.66771,-10.09409 -7.74796,3.43031 -10.06917,7.96246 -17.44307,3.8314 z"
           id="path3876"
           inkscape:connector-curvature="0"
           sodipodi:nodetypes="ccccccc" />
        <path
           style="fill:#2c2424;fill-opacity:1;stroke:#000000;stroke-width:1px;stroke-linecap:round;stroke-linejoin:round;stroke-opacity:1"
           d="m 273.24626,805.12735 c -8.42001,4.26851 -11.09312,9.56567 -14.89975,15.15229 -6.46025,11.33353 -7.43043,18.41046 -6.31345,27.52666 2.48146,6.47138 27.82848,3.54471 39.39595,4.0406 16.45361,-0.57429 33.82042,-1.0044 37.88072,-3.53553 3.07419,-4.46282 4.18294,-12.27428 5.55584,-16.92006 0.87983,-5.99178 3.12697,-13.04498 -2.02031,-17.9302 -5.39722,-6.0311 -10.15163,-2.27658 -15.9099,-0.25254 -6.61863,-0.64763 -7.37844,-7.28255 -14.39467,-13.63707 -5.05077,-1.16047 -10.10153,1.49827 -15.1523,2.77793 -5.34022,1.53473 -12.6612,5.01785 -14.14213,2.77792 z"
           id="path3878"
           inkscape:connector-curvature="0"
           sodipodi:nodetypes="ccccccccccc" />
        <path
           style="fill:#171111;fill-opacity:1;stroke:#000000;stroke-width:1px;stroke-linecap:round;stroke-linejoin:round;stroke-opacity:1"
           d="m 258.38984,719.20003 c 7.16175,12.20716 13.87516,26.72776 10.31074,30.62147 -16.85589,17.48145 -65.72048,39.49663 -72.22591,33.84011 -12.40573,-5.39175 -10.32786,-45.19565 1.26269,-56.316 7.71672,3.28034 6.84256,-4.54953 18.68783,-14.01588 9.69814,-7.02572 10.06431,-6.6451 19.69796,-0.88388 8.73792,-5.22367 9.52595,-2.51013 13.63706,3.91435 1.59635,1.27028 7.86343,2.69075 8.62963,2.83983 z"
           id="path3880"
           inkscape:connector-curvature="0"
           sodipodi:nodetypes="cccccccc" />
        <path
           style="fill:#8d7663;fill-opacity:1;stroke:#000000;stroke-width:1px;stroke-linecap:round;stroke-linejoin:round;stroke-opacity:1"
           d="m 272.70466,590.28982 c 0.62373,-3.87216 -19.82776,22.17539 -31.2782,29.72707 -9.96595,6.59364 -46.71844,19.55894 -53.53809,27.27412 -17.02294,19.40644 7.0692,48.59641 12.62691,59.34646 l -3.28299,17.93021 c -0.41411,4.83867 5.71037,4.97049 8.33376,0.63135 6.43405,-10.89925 17.2339,-17.55317 19.9505,-17.5514 4.20661,0.14599 7.89904,2.64975 10.60661,5.16806 5.91704,-3.73337 8.33247,-6.64281 13.38452,3.40029 15.13432,8.0247 17.6066,-1.21846 14.37673,-8.61168 -4.30183,-4.89109 -11.53081,-8.64333 -19.93257,-14.35135 -3.55098,-6.10043 -4.61254,-15.52009 -5.34663,-25.37637 15.68842,-5.78186 27.28738,-11.3327 33.72435,-17.5514 -4.79083,-23.05342 -2.75945,-37.64573 0.3751,-60.03536 z"
           id="path3882"
           inkscape:connector-curvature="0"
           sodipodi:nodetypes="cccccccccccccc" />
        <path
           style="fill:none;stroke:#000000;stroke-width:1px;stroke-linecap:round;stroke-linejoin:round;stroke-opacity:1"
           d="m 233.85031,656.38238 5.55584,10.10153 -3.53553,4.04061 -9.09137,-5.05076 -8.5863,0"
           id="path3884"
           inkscape:connector-curvature="0" />
        <path
           style="fill:#584848;fill-opacity:1;stroke:#000000;stroke-width:1px;stroke-linecap:round;stroke-linejoin:round;stroke-opacity:1"
           d="m 633.07736,337.87393 c -1.09961,7.98731 5.83753,7.43056 -3.24725,31.62513 -2.20409,9.4678 -6.58785,23.27493 -17.17259,37.37565 -8.95125,11.05888 -19.98998,19.3942 -31.16154,27.9884 -5.03837,4.48167 -3.84687,7.52759 -1.33884,11.85134 l -9.54939,7.4768 c -18.01352,17.05338 27.3607,-3.05688 10.25996,4.76451 -5.60991,9.40527 -3.33086,8.78357 -1.23358,9.04586 -69.98371,38.72182 -52.43943,-61.53862 -17.86304,-81.20369 -4.97407,7.70491 -6.80051,14.3606 -8.83884,21.08693 3.01964,-7.97059 4.25812,-15.49253 10.35407,-22.98097 8.02794,-9.57681 10.48935,-19.1521 26.8953,-29.92578 7.56751,-4.35433 14.3191,-8.54114 22.72843,-10.60659 0.61265,7.13224 -3.95458,13.19804 -8.8309,18.06467 -2.29154,2.28699 -4.65135,4.30915 -6.57392,6.05272 7.81365,-7.75122 15.6995,-12.03607 15.40483,-24.11739 15.42421,-7.89896 20.1673,-6.49759 20.1673,-6.49759 z"
           id="path3886"
           inkscape:connector-curvature="0"
           sodipodi:nodetypes="cccccccccccccscccc" />
        <path
           style="fill:none;stroke:#000000;stroke-width:1px;stroke-linecap:round;stroke-linejoin:round;stroke-opacity:1"
           d="m 605.67311,372.25904 c -6.36666,10.79906 -7.69283,12.88653 -14.73387,16.43292 2.57316,-0.90103 4.60077,-2.58491 7.18836,-4.42839 2.23032,11.77959 -2.66279,19.36022 -7.69344,22.61114"
           id="path3888"
           inkscape:connector-curvature="0"
           sodipodi:nodetypes="cccc" />
        <path
           style="fill:none;stroke:#000000;stroke-width:1px;stroke-linecap:round;stroke-linejoin:round;stroke-opacity:1"
           d="m 620.73874,382.12597 c -1.38207,8.9302 -5.16232,16.9792 -8.5863,25.25381"
           id="path3890"
           inkscape:connector-curvature="0"
           sodipodi:nodetypes="cc" />
        <path
           style="fill:none;stroke:#000000;stroke-width:1px;stroke-linecap:round;stroke-linejoin:round;stroke-opacity:1"
           d="m 581.19485,394.6916 c -12.90565,9.17105 -24.02701,25.93039 -25.43238,41.08975 -0.75124,0.73869 -1.28621,-11.53829 -1.15809,-10.63724 -6.73529,9.97929 -8.37148,15.65442 -9.95359,27.00889"
           id="path3892"
           inkscape:connector-curvature="0"
           sodipodi:nodetypes="cccc" />
        <path
           style="fill:#574949;fill-opacity:1;stroke:#000000;stroke-width:1px;stroke-linecap:round;stroke-linejoin:round;stroke-opacity:1"
           d="m 373.23343,349.19358 c 11.19807,7.47394 24.49479,42.27969 13.26721,41.01361 -6.1274,-4.57702 -7.72857,-10.15986 -9.71374,-15.65737 1.85607,6.17823 4.43228,11.84207 9.59645,15.65737 1.22486,12.46728 -0.98302,56.37354 -10.10153,53.53808 -2.77775,-5.51807 -4.10951,-11.35748 -2.61204,-17.8256 -2.45789,7.61002 0.52599,13.04332 2.61204,18.83576 0.71232,21.24118 14.99345,29.24341 30.80966,39.90102 8.68092,6.94922 4.12134,9.15731 -3.92332,8.46901 l -8.61693,-7.6987 15.26433,13.80076 c 5.51664,3.69533 8.81707,5.17446 12.52229,7.05838 -14.22696,-0.58336 -19.47421,-0.15015 -38.5591,-7.28029 -22.22802,-13.65303 -30.01799,-27.05904 -26.68239,-67.12219 9.22481,-45.42493 8.57544,-46.01685 7.97136,-55.35444 -0.58293,-10.03417 -5.72961,-17.30662 -10.16805,-19.88026 9.07286,-1.07312 13.86175,-4.54168 18.33376,-7.45514 z"
           id="path3894"
           inkscape:connector-curvature="0"
           sodipodi:nodetypes="ccccccccccccccccc" />
        <path
           style="fill:none;stroke:#000000;stroke-width:1px;stroke-linecap:round;stroke-linejoin:round;stroke-opacity:1"
           d="m 347.49248,442.17403 c -6.75386,13.99483 -17.13198,30.73257 -28.87166,40.00345 -24.98754,19.2285 -45.40217,26.68237 -73.53257,28.74294"
           id="path3896"
           inkscape:connector-curvature="0"
           sodipodi:nodetypes="ccc" />
        <path
           sodipodi:nodetypes="cccc"
           inkscape:connector-curvature="0"
           id="path3782-5"
           d="m 236.25402,379.07888 c -0.58401,-2.64624 -3.61896,-9.05057 -8.21429,-10.17856 -14.43577,-3.13164 -11.83892,13.52405 -1.96428,4.99999 8.74435,0.26967 13.7692,18.56291 10.17857,5.17857 z"
           style="fill:#251f1f;fill-opacity:1;stroke:#000000;stroke-width:1px;stroke-linecap:round;stroke-linejoin:round;stroke-opacity:1" />
        <path
           sodipodi:nodetypes="cc"
           inkscape:connector-curvature="0"
           id="path3788-8"
           d="m 210.69479,389.55913 c -14.78858,17.20929 -21.99546,44.15646 -16.92005,62.882"
           style="fill:none;stroke:#000000;stroke-width:1px;stroke-linecap:round;stroke-linejoin:round;stroke-opacity:1" />
        <path
           style="fill:none;stroke:#000000;stroke-width:1px;stroke-linecap:round;stroke-linejoin:round;stroke-opacity:1"
           d="m 174.28974,501.04317 c 3.50856,-6.74882 2.57667,-15.86583 -3.03572,-18.57143 -15.17235,-6.67059 -30.52917,19.14814 -28.49746,31.42857 0.47724,2.21573 1.25304,2.71435 2.67857,3.75"
           id="path3778-8"
           inkscape:connector-curvature="0"
           sodipodi:nodetypes="cccc" />
        <path
           style="fill:#251f1f;fill-opacity:1;stroke:#000000;stroke-width:1px;stroke-linecap:round;stroke-linejoin:round;stroke-opacity:1"
           d="m 164.82545,494.07888 c -2.56936,-0.0404 -5.5309,3.05669 -8.57143,6.78572 -2.30904,2.88111 -4.1166,5.92939 -5,9.28571 -0.39146,2.43921 0.0348,4.40603 1.42857,5.89286 6.17144,4.63616 6.25283,-11.34635 8.57143,-15.53571 z"
           id="path3780-1"
           inkscape:connector-curvature="0"
           sodipodi:nodetypes="cccccc" />
        <path
           style="fill:#ffffff;fill-opacity:1;stroke:#000000;stroke-width:1px;stroke-linecap:round;stroke-linejoin:round;stroke-opacity:1"
           d="m 210.82107,395.11498 c 8.72664,-3.6179 16.46148,1.98304 17.67767,7.57614 3.9175,13.40757 -4.3555,46.24568 -18.30902,48.23478 -14.34946,2.1708 -18.02793,-9.7437 -16.16244,-24.74874 3.99501,-16.27415 8.15226,-27.33607 16.79379,-31.06218 z"
           id="path3790-2"
           inkscape:connector-curvature="0"
           sodipodi:nodetypes="ccccc" />
        <path
           style="fill:#000000;fill-opacity:1;stroke:#000000;stroke-width:1px;stroke-linecap:round;stroke-linejoin:round;stroke-opacity:1"
           d="m 223.49262,437.04396 c -0.21427,-11.41859 -8.95713,-10.15227 -11.15633,-1.14408 -1.22168,4.7493 -2.77528,19.2307 6.26904,9.45595"
           id="path3792-1"
           inkscape:connector-curvature="0"
           sodipodi:nodetypes="ccc" />
        <path
           style="fill:#574949;fill-opacity:1;stroke:#000000;stroke-width:1px;stroke-linecap:round;stroke-linejoin:round;stroke-opacity:1"
           d="m 305.56418,301.01808 c -9.53374,-9.77261 -19.41396,-14.84545 -27.52846,-17.04875 0,0 -16.04598,-3.30654 -31.07143,-2.85715 -20.81484,-0.39979 -72.97868,17.45823 -60.67994,22.95278 l 19.42994,-7.41706 c 0,0 -21.07143,8.39285 -23.92857,9.10714 -18.38153,8.44692 -50.39576,37.55905 -26.29512,29.27748 4.04738,-1.39078 -3.29585,1.54459 25.22369,-13.38462 -11.13046,6.97782 -20.01405,7.77673 -33.57143,21.42857 -6.36868,7.05955 -16.40665,18.79506 -18.57143,24.28571 -9.1847,22.6707 33.96322,-1.92214 39.42313,-4.88551 3.75639,-2.8949 1.01596,-2.65845 45.75544,-33.23948 l -16.13732,11.42639 c -10.01766,20.36234 32.61066,-6.76637 39.61638,-9.46647 1.69083,-1.73764 -23.70449,17.32031 -11.66669,21.52574 18.66346,0.20075 28.63669,-9.44573 42.20549,-20.53923 -7.73215,8.43709 -5.16662,11.27401 -1.46229,10.13133 11.08794,-4.21544 17.97304,-13.48129 25.81191,-20.0998 -6.92565,11.61274 -3.16362,11.74852 6.54586,5.77556 2.27452,-8.99088 2.42843,-17.98175 6.90084,-26.97263 z"
           id="path4094"
           inkscape:connector-curvature="0"
           sodipodi:nodetypes="ccccccsccccccccccccc" />
        <path
           style="fill:#8d7663;fill-opacity:1;stroke:#000000;stroke-width:1px;stroke-linecap:round;stroke-linejoin:round;stroke-opacity:1"
           d="m 222.85715,284.50504 c -5.22946,-9.38769 -17.11135,-24.79387 -22.81754,-30.08293 -14.14287,-12.30425 -37.8376,-18.67694 -46.46818,-22.77421 l -30.33548,-14.32904 c -5.13579,-2.73126 -25.711046,-24.33769 -29.664521,-27.09954 -14.35377,-11.69271 -2.359807,21.60559 2.647933,27.01288 4.461918,7.00333 19.232358,18.33244 26.637778,25.12998 -4.97996,-6.70674 -11.14126,-11.05082 -14.28571,-21.42857 1.72772,7.99552 8.32564,14.36764 13.92857,21.07143 18.65923,8.96342 46.07227,37.41412 48.5931,41.24102 l 11.2537,22.46193 3.9032,-1.73867 c -8.08225,-3.08948 12.02482,-11.62457 14.16098,-12.66216 z"
           id="path4096"
           inkscape:connector-curvature="0"
           sodipodi:nodetypes="cccccccccccccc" />
        <path
           style="fill:#d7b694;fill-opacity:1;stroke:#000000;stroke-width:1px;stroke-linecap:round;stroke-linejoin:round;stroke-opacity:1"
           d="m 123.03571,242.36219 c 5.35852,5.41207 11.51747,10.01293 15.35715,16.96427 8.72494,12.54624 14.55954,27.57111 20.71428,42.32144 5.41932,12.07313 7.06092,11.61415 8.39286,12.49999 7.52165,-5.01506 8.77852,-5.74529 14.82143,-8.57143 l -10.98215,-21.96428 c -1.58892,-3.77069 -18.70474,-19.2239 -27.94643,-27.14286 -6.46928,-6.18026 -13.42561,-10.27604 -20.35714,-14.10713 z"
           id="path4098"
           inkscape:connector-curvature="0"
           sodipodi:nodetypes="cccccccc" />
        <path
           style="fill:#edd5bd;fill-opacity:1;stroke:#000000;stroke-width:1px;stroke-linecap:round;stroke-linejoin:round;stroke-opacity:1"
           d="m 340.96683,303.24978 c 0.0184,-8.27192 18.20339,-23.28069 34.03317,-32.65537 17.85771,-10.8171 34.25216,-15.97654 61.64522,-30.3392 l 17.47461,-16.21192 c -20.49047,21.93494 -34.87073,29.38594 -56.16859,46.42857 -10.14637,7.75106 -13.02384,16.07111 -15.85172,24.48749 -2.18371,12.26912 -5.08344,15.85192 -7.94379,20.75762 -7.06083,10.59811 -16.08617,19.05591 -27.0562,23.74474 -19.36496,7.363 -11.86791,-7.09818 -5.62763,-20.7935 0.7067,-5.12831 2.14133,-2.76881 -0.50507,-15.41843 z"
           id="path4100"
           inkscape:connector-curvature="0"
           sodipodi:nodetypes="cccccccccc" />
        <path
           style="fill:#251f1f;fill-opacity:1;stroke:#000000;stroke-width:1px;stroke-linecap:round;stroke-linejoin:round;stroke-opacity:1"
           d="m 151.63778,541.14654 c 18.84509,-7.11201 32.52604,-16.7779 46.93365,-26.6415 3.37093,-4.64353 4.25624,-9.64215 6.13642,-14.49864 -3.38326,-0.98717 -4.16615,2.61211 -5.51142,4.40936 0.66389,-2.65203 3.24859,-5.82796 5.8852,-4.8954 5.42156,1.03438 3.69353,7.44805 3.84694,11.23468 -0.51676,-3.86264 0.29109,-9.79591 -4.01151,-10.79569 -2.70911,5.2126 -3.15129,10.39924 -5.99857,14.6344 -2.84729,4.23516 -8.73104,12.06452 -11.96923,15.49152 -6.47638,6.85399 -13.98731,12.26097 -23.54371,16.8981 -11.53825,4.64743 -7.95774,-6.21603 -1.27169,-10.26676 z"
           id="path4102"
           inkscape:connector-curvature="0"
           sodipodi:nodetypes="cccccccssccc" />
      </g>
    </g>
  </g>
</svg>
