<?xml version="1.0" encoding="UTF-8" standalone="no"?>
<!-- Created with Inkscape (http://www.inkscape.org/) -->

<svg
   width="297mm"
   height="210mm"
   viewBox="0 0 297 210"
   version="1.1"
   id="svg5"
   inkscape:version="1.1.1 (3bf5ae0d25, 2021-09-20)"
   sodipodi:docname="dc-logo.svg"
   xmlns:inkscape="http://www.inkscape.org/namespaces/inkscape"
   xmlns:sodipodi="http://sodipodi.sourceforge.net/DTD/sodipodi-0.dtd"
   xmlns="http://www.w3.org/2000/svg"
   xmlns:svg="http://www.w3.org/2000/svg">
  <sodipodi:namedview
     id="namedview7"
     pagecolor="#ffffff"
     bordercolor="#666666"
     borderopacity="1.0"
     inkscape:pageshadow="2"
     inkscape:pageopacity="0.0"
     inkscape:pagecheckerboard="0"
     inkscape:document-units="mm"
     showgrid="false"
     inkscape:zoom="0.32756265"
     inkscape:cx="441.13698"
     inkscape:cy="566.30388"
     inkscape:window-width="1360"
     inkscape:window-height="705"
     inkscape:window-x="-8"
     inkscape:window-y="-8"
     inkscape:window-maximized="1"
     inkscape:current-layer="layer4" />
  <defs
     id="defs2" />
  <g
     inkscape:label="Dove"
     inkscape:groupmode="layer"
     id="layer1"
     style="display:inline">
    <path
       style="fill:#000000;stroke-width:0.264583"
       d="m 53.317795,165.96956 c -1.461219,-0.56727 -2.50839,-4.62673 -2.488022,-9.64509 0.0077,-1.89177 0.12061,-4.07774 0.250962,-4.85771 0.231341,-1.38425 0.217292,-1.43483 -0.587975,-2.11667 -6.206403,-5.25514 -7.396822,-11.65688 -3.381193,-18.18311 l 0.819857,-1.33243 -0.586206,-1.17483 c -0.467143,-0.93621 -0.586372,-1.63273 -0.587028,-3.42935 -7.94e-4,-2.01319 0.09191,-2.44288 0.865452,-4.01418 1.327994,-2.69754 5.045247,-5.80605 6.420921,-5.36942 0.280625,0.0891 2.085867,1.85111 4.011654,3.91565 6.41516,6.87742 12.15283,12.43942 14.32175,13.88329 1.89059,1.25858 2.20487,1.37981 3.5772,1.37981 2.20604,0 7.71157,-1.68055 7.71157,-2.35394 0,-0.11688 -0.80148,-0.55315 -1.78108,-0.96948 -4.89375,-2.07988 -9.36382,-6.49081 -10.64414,-10.50332 -0.263,-0.82424 -0.56397,-1.11523 -1.75854,-1.70015 -2.57562,-1.26116 -4.46179,-3.75375 -5.29164,-6.99297 -0.35394,-1.38159 -0.36678,-1.93613 -0.0882,-3.8088 l 0.32609,-2.19179 -2.58027,-2.46675 c -2.85482,-2.72922 -4.337,-4.663904 -5.85459,-7.641949 -0.967378,-1.898328 -1.015741,-2.116788 -1.115489,-5.03884 -0.108865,-3.189062 0.243949,-4.840753 1.104564,-5.171 0.21255,-0.0816 1.319255,0.152087 2.459345,0.519227 3.61631,1.164531 5.00643,1.352981 9.8781,1.339101 3.58261,-0.0102 5.82745,-0.18106 9.92187,-0.755124 4.85863,-0.681227 5.89792,-0.738877 12.7,-0.704437 4.07458,0.0206 8.775736,0.16226 10.447023,0.314737 3.03152,0.27657 8.35737,1.477611 9.75334,2.199478 0.40511,0.2095 1.23826,1.156634 1.85142,2.104738 1.37009,2.118518 4.33177,4.866523 6.34358,5.885907 1.30501,0.661257 1.7985,0.761417 3.75165,0.761417 2.68281,0 4.00922,-0.541127 6.17238,-2.518128 1.54597,-1.412921 2.37575,-2.792072 3.59996,-5.983344 1.04525,-2.724775 2.82291,-5.25554 5.42537,-7.723838 4.81506,-4.566813 7.41321,-5.43661 17.47107,-5.848837 4.75174,-0.194757 5.49351,-0.288887 7.18304,-0.911554 2.249,-0.828864 2.62436,-0.847294 3.71468,-0.18248 1.18687,0.723697 1.27671,1.316504 0.51819,3.419262 -1.24283,3.445399 -1.97082,6.785721 -2.40121,11.017717 -0.47871,4.707093 -0.75173,6.138444 -1.94301,10.186403 -1.10773,3.764064 -5.71189,23.454244 -6.1249,26.193744 -0.0987,0.65484 -0.38027,1.57166 -0.62565,2.03738 -0.24539,0.46572 -0.44744,1.12056 -0.44902,1.45521 -0.004,0.94758 -0.71713,3.06901 -1.31132,3.90348 -0.29584,0.41547 -0.5379,1.00887 -0.5379,1.31867 0,1.33123 -2.7868,5.85432 -5.49407,8.9171 -1.01103,1.14379 -4.18685,4.28227 -7.05737,6.97441 -5.83398,5.47141 -7.55854,6.63882 -13.24543,8.96621 -11.04412,4.51986 -21.61918,5.77362 -31.485569,3.73289 -12.296144,-2.54329 -21.340834,-3.77818 -27.913544,-3.81107 -5.65176,-0.0283 -8.00089,0.3738 -10.34628,1.7709 -1.24793,0.74337 -1.54867,1.09914 -2.388706,2.82578 -1.064186,2.18736 -1.637453,2.72563 -2.532711,2.37808 z m 64.979605,-7.11312 c 4.87321,-0.94467 10.50486,-3.1755 14.56231,-5.76849 1.69307,-1.08198 11.50689,-10.23924 13.49616,-12.59325 1.63418,-1.93381 3.63705,-5.95075 5.56329,-11.15773 0.75367,-2.03729 1.54082,-3.96831 1.74924,-4.29115 0.20842,-0.32284 2.34508,-9.31206 4.74814,-19.97604 2.40306,-10.663947 4.78519,-20.91647 5.29364,-22.783418 0.50845,-1.866938 0.86192,-3.495619 0.78549,-3.619279 -0.0764,-0.12366 -0.88043,0.0256 -1.78668,0.331597 -1.57314,0.531257 -1.85142,0.543177 -6.14752,0.26337 -4.92234,-0.32061 -6.60552,-0.17162 -8.5174,0.753894 -3.15125,1.525491 -6.6729,5.722157 -12.26346,14.614069 -1.36946,2.178158 -2.92906,4.318553 -3.50747,4.813643 -5.31698,4.551134 -13.6664,2.546404 -20.05853,-4.816093 -0.70565,-0.812777 -1.32417,-1.208684 -2.38127,-1.524241 -3.99463,-1.192454 -13.343409,-1.876041 -22.594723,-1.652141 -6.75151,0.163407 -9.86959,0.461337 -12.43542,1.188201 -1.30415,0.36945 -2.77994,0.44972 -8.26827,0.44972 h -6.68077 l 4e-5,0.944154 c 6e-5,1.363301 0.6541,3.362719 1.57481,4.814213 0.60118,0.947754 1.44042,1.676061 3.3827,2.935531 3.27054,2.12078 4.41369,2.56156 7.26868,2.80265 1.26735,0.10703 2.48774,0.34686 2.71198,0.53296 0.69971,0.5807 0.50224,1.99958 -0.42532,3.05601 -1.58928,1.81009 -2.93278,2.09336 -5.75798,1.21406 -1.36688,-0.42542 -1.61108,-0.44244 -1.61108,-0.11231 0,0.80798 3.44191,6.16998 3.96055,6.16998 0.13919,0 0.74468,-0.72392 1.34553,-1.60872 1.6541,-2.43577 4.0659,-3.71417 8.51044,-4.51104 2.14013,-0.38371 3.67687,-0.0391 4.34018,0.97321 0.92979,1.41905 -0.10425,5.64048 -1.89375,7.73111 -1.51254,1.76706 -3.40377,2.52603 -6.7183,2.69611 -3.47266,0.17821 -3.63803,0.44386 -1.56377,2.51194 1.20085,1.19726 1.74792,1.5181 3.66079,2.14691 1.98366,0.65208 2.65472,0.74066 5.68854,0.75087 3.17363,0.0107 3.58279,-0.0461 5.29167,-0.73476 2.73397,-1.10172 3.30957,-1.24178 3.87025,-0.94171 1.09036,0.58354 0.31338,2.24207 -2.88148,6.15071 -1.70485,2.08574 -3.70952,3.85685 -5.2221,4.6137 -2.34358,1.17264 -9.95545,2.58093 -12.78975,2.36627 -4.58966,-0.34762 -9.6855,-4.88442 -15.87658,-14.13483 -3.609604,-5.39331 -4.594391,-5.62024 -4.554609,-1.04953 0.02824,3.24426 0.306369,4.12248 1.650191,5.21059 3.074188,2.48923 5.244698,5.3907 5.244698,7.01097 0,0.80915 -0.62919,1.12773 -1.23516,0.62541 -0.23907,-0.19819 -1.07547,-1.16327 -1.858669,-2.14463 -0.783198,-0.98136 -1.77079,-1.96362 -2.19465,-2.18281 -2.957917,-1.5296 -5.445223,1.37936 -4.763093,5.57053 0.487413,2.99477 2.6366,8.11683 3.459197,8.24414 0.225523,0.0349 0.6814,-0.59056 1.145199,-1.57124 1.897904,-4.01298 5.195476,-5.37634 7.940226,-3.28281 1.8216,1.3894 2.55773,4.41532 1.49724,6.15448 -1.06612,1.7484 -4.40524,3.61227 -7.363723,4.11036 l -1.918229,0.32296 v 1.12601 c 0,2.72973 1.177944,5.38538 2.388748,5.38538 0.269294,0 1.955354,-0.35899 3.746794,-0.79776 7.85013,-1.92271 15.01126,-2.64783 21.32981,-2.1598 4.87587,0.3766 7.10157,0.78598 13.31906,2.44985 2.713351,0.72613 5.570853,1.42404 6.350003,1.55092 0.77915,0.12688 2.17468,0.42717 3.10119,0.66732 3.94886,1.02355 9.51662,1.08587 14.29297,0.15998 z m 37.41527,-74.49936 c -0.67393,-0.472047 -1.24338,-2.026728 -1.01077,-2.759605 0.37408,-1.178601 1.93137,-0.880994 2.64871,0.506177 0.98855,1.911641 -0.0621,3.357152 -1.63794,2.253428 z M 58.002157,146.4026 c 0.60684,-0.60684 0.64265,-0.91842 0.2387,-2.07719 -0.35033,-1.00495 -1.21684,-1.11476 -2.362014,-0.29933 -0.895707,0.63781 -1.950151,2.25762 -1.716125,2.63628 0.09158,0.14817 0.873853,0.26941 1.73839,0.26941 1.219109,0 1.690649,-0.11876 2.101049,-0.52917 z m 20.03787,-28.0512 c 1.89917,-1.08918 2.24297,-2.5293 0.76461,-3.20288 -0.91594,-0.41733 -3.27366,0.69305 -4.28387,2.0175 l -0.75499,0.98985 0.61417,0.49732 c 0.87698,0.71014 2.06664,0.61205 3.66008,-0.30179 z"
       id="path984" />
  </g>
  <g
     inkscape:groupmode="layer"
     id="layer5"
     inkscape:label="white line"
     style="display:inline">
    <path
       style="fill:#ffffff;stroke:#000000;stroke-width:0.264583px;stroke-linecap:butt;stroke-linejoin:miter;stroke-opacity:1"
       d="m 153.68302,124.45207 c 0,0 -2.54554,8.63891 -4.8352,12.46095 -2.18332,3.64454 -8.30134,9.67126 -8.30134,9.67126 l 1.57067,2.99855 c 0,0 6.87691,-6.66047 9.34779,-10.70124 2.38078,-3.89343 5.07385,-12.71606 5.07385,-12.71606 z"
       id="path59860"
       sodipodi:nodetypes="caccacc" />
    <path
       style="fill:#ffffff;stroke:none;stroke-width:0.142788"
       d="m 141.49838,147.95258 -4.11708,-0.87449 3.4611,-3.67383 c 2.50325,-2.65711 5.60291,-3.5018 6.40944,-5.38729 0.99975,-2.33723 -1.50979,-7.61065 2.22742,-12.5605 0.9494,-1.25745 4.20376,-1.0044 4.20376,-1.0044 0,0 3.46307,0.21677 4.05827,0.57812 1.28205,0.77835 1.15006,1.58942 -0.24023,5.56178 -1.19713,3.42045 -1.86699,6.8722 -2.74352,8.41031 -1.22907,2.15673 -3.81915,10.88314 -9.30382,10.48825 l -3.26518,3.62019 z"
       id="path60183"
       sodipodi:nodetypes="ccssscsssscc" />
  </g>
  <g
     inkscape:groupmode="layer"
     id="layer2"
     inkscape:label="chains"
     style="display:inline">
    <path
       style="fill:#000000;stroke-width:0.264583"
       d="m 201.21437,122.06011 c -0.4862,-0.30537 -2.91575,-3.28802 -5.62239,-6.90234 l -4.76624,-6.36461 v -1.40706 c 0,-1.1537 0.14774,-1.61101 0.82046,-2.53968 0.7016,-0.96852 0.77859,-1.22452 0.53146,-1.76692 -0.42004,-0.92189 -0.94154,-1.00767 -1.8851,-0.31006 -1.11441,0.82392 -3.4967,0.86989 -4.53401,0.0875 -0.83478,-0.62964 -9.47318,-12.018776 -9.94431,-13.1109 -0.54061,-1.253164 -0.13917,-3.082532 0.9381,-4.274936 0.84144,-0.931374 0.89306,-1.078464 0.58224,-1.659241 -0.18758,-0.350497 -0.91974,-1.228234 -1.62703,-1.950528 -0.70729,-0.722297 -1.28597,-1.369784 -1.28597,-1.438854 0,-0.0691 0.2548,-0.192227 0.56623,-0.273657 0.4848,-0.12678 0.54427,-0.283427 0.41351,-1.089194 -0.11312,-0.697037 -0.0582,-0.941114 0.2119,-0.941114 0.20055,0 0.43821,0.11907 0.52815,0.264587 0.32605,0.527557 0.88794,0.24662 1.05833,-0.529167 0.2308,-1.050834 0.82553,-1.012664 1.03064,0.0662 0.22094,1.162024 2.47873,3.988639 3.04228,3.808739 0.23375,-0.0746 0.93945,-0.324477 1.56821,-0.555227 1.47799,-0.542427 2.80318,-0.21347 3.92651,0.974684 0.96768,1.023504 8.86818,11.453777 9.30976,12.290771 0.38897,0.737287 0.3934,2.591875 0.008,3.342062 -0.1633,0.317857 -0.60091,0.903894 -0.97247,1.302311 -0.6075,0.651417 -0.64048,0.789927 -0.32735,1.375024 0.5106,0.95406 0.98537,1.01821 2.07181,0.27996 1.12533,-0.764687 3.06703,-0.893807 4.24906,-0.28256 0.74381,0.38464 9.29608,11.42223 10.1537,13.10442 1.16466,2.28441 0.44858,3.65578 -3.43025,6.56925 -2.73949,2.05768 -3.14294,2.27533 -4.38796,2.36718 -1.04617,0.0772 -1.57398,-0.0263 -2.22725,-0.43658 z m 4.53992,-4.86075 c 1.15294,-0.90334 2.13921,-1.7735 2.19171,-1.9337 0.0525,-0.1602 -1.79271,-2.77958 -4.10046,-5.82084 -3.42041,-4.50756 -4.31384,-5.52956 -4.83392,-5.52956 -0.81685,0 -0.99185,0.77938 -0.33771,1.50404 0.47742,0.52889 0.46526,0.55724 -0.6723,1.56782 -1.32159,1.17406 -1.61322,1.23799 -2.28108,0.50002 -0.56579,-0.6252 -1.19062,-0.6937 -1.19062,-0.13052 0,0.611 8.27477,11.50915 8.729,11.49639 0.21952,-0.006 1.34244,-0.75031 2.49538,-1.65365 z M 188.65893,99.217756 c 0.0485,-0.25195 -0.45613,-1.150954 -1.12144,-1.997788 -0.66532,-0.846837 -1.20966,-1.661191 -1.20966,-1.809681 0,-0.363947 1.99224,-1.946028 2.45055,-1.946028 0.2007,0 0.98196,0.770014 1.73615,1.711151 0.92028,1.148401 1.50148,1.661168 1.76727,1.559181 0.21781,-0.0836 0.39603,-0.34164 0.39603,-0.573467 0,-0.589927 -8.23774,-11.428067 -8.68612,-11.428067 -0.24115,0 -0.30475,0.15822 -0.18613,0.463017 0.37953,0.975177 0.26746,1.208524 -1.02674,2.137948 -1.3226,0.949817 -1.61235,1.006717 -2.18917,0.42991 -0.46837,-0.468367 -0.85497,-0.40508 -1.23838,0.202737 -0.2134,0.33833 0.6012,1.581731 4.03064,6.152367 4.23396,5.642847 5.02501,6.407184 5.277,5.09872 z M 162.79327,67.865935 c -0.28961,-0.5457 -0.87626,-1.40579 -1.30366,-1.91129 l -0.77709,-0.9191 -1.1781,0.58837 c -1.30106,0.64978 -2.91339,0.74921 -3.83655,0.23659 -0.56602,-0.31431 -7.69998,-9.27914 -9.77386,-12.28224 -1.28615,-1.862429 -1.32068,-3.276947 -0.12153,-4.978202 0.98017,-1.390582 1.00236,-1.537849 0.33257,-2.207633 -0.49731,-0.497314 -0.52513,-0.495229 -1.76463,0.132291 -1.36415,0.690621 -2.82165,0.807125 -3.72131,0.297461 -0.72782,-0.412316 -10.0847,-12.218375 -10.56988,-13.336561 -1.143,-2.634283 1.14591,-5.780885 6.03636,-8.298261 2.2238,-1.14471 3.44111,-0.969826 5.00119,0.718494 0.91727,0.99267 8.79605,11.435272 9.1874,12.177061 0.57108,1.082453 0.37115,2.815674 -0.4691,4.066778 -0.79743,1.187336 -0.78051,1.625595 0.0906,2.348571 0.33205,0.275577 0.56361,0.236427 1.30245,-0.220197 1.06511,-0.658275 3.01877,-0.740071 4.11662,-0.172352 1.08604,0.561615 10.2647,12.80754 10.48674,13.99115 0.25641,1.36675 -0.0522,2.36001 -1.12153,3.60924 l -0.95193,1.11211 1.62539,1.52286 c 1.66181,1.55696 1.76741,1.87121 0.6288,1.87121 -0.52621,0 -0.61751,0.0996 -0.48506,0.52917 0.0897,0.29104 0.23656,0.76729 0.3263,1.05833 0.19174,0.62192 -0.22058,0.70071 -0.69232,0.13229 -0.49046,-0.59096 -1.03938,-0.48117 -1.32292,0.26459 -0.13831,0.3638 -0.31154,0.66146 -0.38495,0.66146 -0.0734,0 -0.37041,-0.44649 -0.66002,-0.99219 z m -4.9148,-5.61163 c 0.0863,-0.13961 0.009,-0.49013 -0.17108,-0.77895 -0.3653,-0.58493 0.0298,-1.18752 1.43529,-2.18937 0.72593,-0.51744 0.73077,-0.51733 1.4299,0.0326 0.66282,0.52138 0.72893,0.52697 1.19916,0.10142 0.27372,-0.24771 0.43717,-0.60803 0.36323,-0.80071 -0.25552,-0.66587 -8.1871,-10.983133 -8.55076,-11.122685 -0.55119,-0.211511 -1.04367,0.380047 -0.6468,0.77692 0.56805,0.568055 0.33889,1.140065 -0.85737,2.140013 -1.2795,1.069528 -1.75976,1.193626 -2.26471,0.585195 -0.42536,-0.512519 -1.05834,-0.511455 -1.05834,0.0019 0,0.536115 8.24438,11.507597 8.64724,11.507597 0.17455,0 0.38796,-0.11422 0.47424,-0.25382 z m -14.99246,-19.39265 c 0.0485,-0.251952 -0.45613,-1.150964 -1.12144,-1.997803 -0.66531,-0.846837 -1.20966,-1.661197 -1.20966,-1.809686 0,-0.363952 1.99224,-1.946045 2.45055,-1.946045 0.2007,0 0.98197,0.770023 1.73615,1.711163 0.92028,1.148413 1.50148,1.661185 1.76727,1.559193 0.21782,-0.08358 0.39603,-0.341647 0.39603,-0.573474 0,-0.589926 -8.23773,-11.428132 -8.68612,-11.428132 -0.24114,0 -0.30475,0.158225 -0.18613,0.463021 0.37953,0.97518 0.26746,1.208537 -1.02673,2.13796 -1.32261,0.949825 -1.61236,1.006727 -2.18917,0.429916 -0.46838,-0.468378 -0.85498,-0.405086 -1.23838,0.202741 -0.21341,0.338322 0.60119,1.581737 4.03064,6.152394 4.23395,5.642886 5.02501,6.407217 5.27699,5.098752 z"
       id="path1308" />
  </g>
  <g
     inkscape:groupmode="layer"
     id="layer4"
     inkscape:label="deliverance center"
     style="display:inline">
    <text
       xml:space="preserve"
       style="font-style:normal;font-weight:normal;font-size:10.5833px;line-height:1.25;font-family:sans-serif;fill:#000000;fill-opacity:1;stroke:none;stroke-width:0.264583"
       x="203.08731"
       y="143.44348"
       id="text22390"><tspan
         sodipodi:role="line"
         id="tspan22388"
         style="stroke-width:0.264583"
         x="203.08731"
         y="143.44348" /></text>
    <g
       id="g59701"
       transform="matrix(3.5186974,0,0,3.5186974,-402.48816,-412.45222)">
      <g
         id="g59791"
         transform="translate(-1.8364376,0.03560974)">
        <g
           aria-label="eliverance"
           id="text7820"
           style="font-size:9.52062px;line-height:1.25;stroke-width:0.238016">
          <path
             d="m 162.52147,155.3565 q 0.0139,0.007 0.0349,0.0209 0.0232,0.0116 0.0418,0.0279 0.0186,0.014 0.0325,0.0326 0.0139,0.0163 0.0139,0.0325 0,0.009 -0.007,0.0186 -0.13017,0.1813 -0.28125,0.31612 -0.14876,0.13248 -0.31146,0.22314 -0.16039,0.0883 -0.32774,0.13016 -0.16736,0.0442 -0.33006,0.0442 -0.27893,0 -0.51136,-0.11389 -0.23244,-0.1139 -0.39979,-0.31147 -0.16736,-0.19757 -0.26266,-0.46255 -0.093,-0.2673 -0.093,-0.57179 0,-0.24871 0.0535,-0.49742 0.0558,-0.2487 0.15805,-0.47417 0.1046,-0.22546 0.25336,-0.41838 0.14876,-0.19525 0.33703,-0.33704 0.1906,-0.14411 0.41607,-0.22546 0.22778,-0.0814 0.48811,-0.0814 0.17201,0 0.32774,0.0465 0.15573,0.0465 0.27195,0.13482 0.11854,0.086 0.18828,0.21384 0.0697,0.12784 0.0697,0.29054 0,0.23709 -0.15574,0.41374 -0.1534,0.17665 -0.42536,0.29985 -0.27195,0.12319 -0.64152,0.19989 -0.36725,0.0744 -0.79494,0.11157 v 0.0395 q 0,0.29751 0.0744,0.5439 0.0767,0.24638 0.2092,0.42303 0.13249,0.17433 0.31146,0.27195 0.17898,0.0976 0.38585,0.0976 0.20919,0 0.42768,-0.10227 0.22082,-0.1046 0.44628,-0.33704 z m -0.43698,-1.86647 q 0,-0.10692 -0.0372,-0.19989 -0.0349,-0.093 -0.1,-0.16038 -0.0628,-0.0697 -0.15108,-0.10925 -0.0883,-0.0395 -0.1906,-0.0395 -0.15108,0 -0.27428,0.0535 -0.12319,0.0535 -0.22081,0.14643 -0.0976,0.0906 -0.17201,0.21384 -0.0744,0.12087 -0.12784,0.25801 -0.0511,0.13714 -0.0837,0.28125 -0.0325,0.14411 -0.0465,0.28125 0.33006,-0.0232 0.59039,-0.079 0.26265,-0.0581 0.44163,-0.14644 0.1813,-0.0906 0.2766,-0.21384 0.0953,-0.12552 0.0953,-0.2859 z"
             style="font-family:Gabriola;-inkscape-font-specification:Gabriola"
             id="path61438" />
          <path
             d="m 164.23453,149.83845 q -0.0465,0.39514 -0.093,0.8112 -0.0442,0.41374 -0.086,0.8391 -0.0395,0.42304 -0.0744,0.85072 -0.0349,0.42768 -0.0604,0.84375 -0.0256,0.41373 -0.0395,0.81353 -0.0139,0.39979 -0.0139,0.76704 0,0.23011 0.005,0.39514 0.007,0.16503 0.0186,0.27893 0.0139,0.11389 0.0349,0.18362 0.0232,0.0697 0.0558,0.10692 0.0325,0.0372 0.0767,0.0511 0.0442,0.0116 0.1046,0.0116 0.11157,0 0.23941,-0.0325 0.13016,-0.0349 0.26265,-0.0953 l 0.0442,0.12087 q -0.0837,0.0674 -0.21151,0.13713 -0.12552,0.0697 -0.26498,0.12784 -0.13946,0.0581 -0.27428,0.093 -0.13249,0.0372 -0.23011,0.0372 -0.12552,0 -0.1999,-0.0651 -0.072,-0.0628 -0.11157,-0.20687 -0.0372,-0.14411 -0.0488,-0.37423 -0.009,-0.23243 -0.009,-0.56482 0,-0.12086 0.007,-0.344 0.007,-0.22547 0.0186,-0.52299 0.0139,-0.29752 0.0302,-0.65082 0.0163,-0.35331 0.0349,-0.72985 0.0186,-0.37888 0.0395,-0.7624 0.0209,-0.38584 0.0418,-0.7438 0.0209,-0.36027 0.0395,-0.67871 0.0186,-0.31844 0.0349,-0.5625 0.002,-0.0558 0.0325,-0.0953 0.0302,-0.0418 0.0767,-0.0651 0.0488,-0.0256 0.10692,-0.0372 0.0604,-0.0116 0.12087,-0.0116 0.13946,0 0.29287,0.0744 z"
             style="font-family:Gabriola;-inkscape-font-specification:Gabriola"
             id="path61440" />
          <path
             d="m 165.65472,151.75605 q -0.0813,0 -0.14411,-0.0325 -0.0628,-0.0349 -0.10692,-0.0883 -0.0442,-0.0558 -0.0674,-0.12552 -0.0232,-0.0721 -0.0232,-0.14644 0,-0.10459 0.0349,-0.18362 0.0349,-0.0813 0.0906,-0.13481 0.0558,-0.0558 0.12319,-0.0814 0.0674,-0.0279 0.13249,-0.0279 0.079,0 0.14178,0.0302 0.0628,0.0279 0.10692,0.079 0.0465,0.0511 0.0697,0.11854 0.0256,0.0651 0.0256,0.14178 0,0.0814 -0.0279,0.16271 -0.0279,0.079 -0.079,0.14411 -0.0488,0.0651 -0.12087,0.1046 -0.0697,0.0395 -0.15573,0.0395 z m 0.20222,1.05062 q -0.0395,0.26498 -0.0674,0.53228 -0.0279,0.26498 -0.0465,0.51368 -0.0163,0.24871 -0.0256,0.47185 -0.007,0.22082 -0.007,0.39979 0,0.24174 0.007,0.41607 0.007,0.172 0.0232,0.29054 0.0163,0.11854 0.0395,0.1906 0.0256,0.0697 0.0604,0.10925 0.0372,0.0372 0.0837,0.0488 0.0488,0.0116 0.10924,0.0116 0.11157,0 0.23941,-0.0325 0.13017,-0.0349 0.26266,-0.0953 l 0.0442,0.12087 q -0.0837,0.0674 -0.21152,0.13713 -0.12551,0.0697 -0.26497,0.12784 -0.13947,0.0581 -0.27428,0.093 -0.13249,0.0372 -0.23011,0.0372 -0.0651,0 -0.11855,-0.0116 -0.0535,-0.009 -0.0976,-0.0511 -0.0418,-0.0418 -0.0767,-0.12319 -0.0325,-0.0814 -0.0558,-0.22082 -0.0209,-0.13946 -0.0325,-0.34865 -0.0116,-0.20919 -0.0116,-0.50671 0,-0.17433 0.002,-0.39282 0.005,-0.22082 0.0116,-0.47185 0.007,-0.25336 0.0186,-0.53228 0.0116,-0.28125 0.0302,-0.57877 0.005,-0.0651 0.0349,-0.1046 0.0302,-0.0418 0.0744,-0.0627 0.0442,-0.0233 0.093,-0.0302 0.0511,-0.009 0.093,-0.009 0.15573,0 0.29287,0.0721 z"
             style="font-family:Gabriola;-inkscape-font-specification:Gabriola"
             id="path61442" />
          <path
             d="m 167.51887,156.15841 q -0.0302,-0.22314 -0.0721,-0.4672 -0.0418,-0.24638 -0.0907,-0.49509 -0.0465,-0.25103 -0.0999,-0.49509 -0.0511,-0.24406 -0.10459,-0.46487 -0.0511,-0.22082 -0.1,-0.40677 -0.0488,-0.18595 -0.0907,-0.32076 -0.0442,-0.13714 -0.0837,-0.22314 -0.0395,-0.0883 -0.0837,-0.13714 -0.0418,-0.0511 -0.093,-0.0697 -0.0511,-0.0186 -0.11622,-0.0186 -0.0744,0 -0.16038,0.0163 -0.0837,0.0163 -0.20222,0.0442 l -0.0349,-0.16736 q 0.13947,-0.0511 0.27195,-0.093 0.13482,-0.0442 0.24871,-0.0744 0.1139,-0.0302 0.20222,-0.0465 0.0883,-0.0163 0.13946,-0.0163 0.0628,0 0.1139,0.0232 0.0535,0.0209 0.10227,0.0744 0.0488,0.0535 0.093,0.14644 0.0442,0.0907 0.0883,0.23011 0.0302,0.093 0.0697,0.24174 0.0418,0.14643 0.086,0.33471 0.0442,0.18827 0.0906,0.40909 0.0488,0.21849 0.093,0.45325 0.0442,0.23476 0.0814,0.47882 0.0395,0.24173 0.0674,0.47649 0.11622,-0.16968 0.23244,-0.35098 0.11854,-0.1813 0.22546,-0.36725 0.10925,-0.18595 0.20222,-0.37422 0.093,-0.1906 0.16271,-0.37655 0.0697,-0.18595 0.10924,-0.36492 0.0395,-0.17898 0.0395,-0.34634 0,-0.20919 -0.0744,-0.39281 -0.0721,-0.18363 -0.24871,-0.32309 l 0.0256,-0.0558 q 0.0418,-0.005 0.0813,-0.007 0.0395,-0.002 0.0767,-0.002 0.31147,0 0.46953,0.14643 0.15805,0.14644 0.15805,0.40677 0,0.19757 -0.0837,0.45092 -0.0837,0.25104 -0.22082,0.52764 -0.13714,0.2766 -0.31146,0.56482 -0.17433,0.2859 -0.35563,0.5532 -0.1813,0.2673 -0.35331,0.50206 -0.172,0.23244 -0.30449,0.40212 z"
             style="font-family:Gabriola;-inkscape-font-specification:Gabriola"
             id="path61444" />
          <path
             d="m 172.07696,155.3565 q 0.0139,0.007 0.0349,0.0209 0.0233,0.0116 0.0418,0.0279 0.0186,0.014 0.0325,0.0326 0.0139,0.0163 0.0139,0.0325 0,0.009 -0.007,0.0186 -0.13017,0.1813 -0.28125,0.31612 -0.14876,0.13248 -0.31147,0.22314 -0.16038,0.0883 -0.32774,0.13016 -0.16735,0.0442 -0.33006,0.0442 -0.27892,0 -0.51136,-0.11389 -0.23243,-0.1139 -0.39979,-0.31147 -0.16735,-0.19757 -0.26265,-0.46255 -0.093,-0.2673 -0.093,-0.57179 0,-0.24871 0.0535,-0.49742 0.0558,-0.2487 0.15806,-0.47417 0.1046,-0.22546 0.25336,-0.41838 0.14876,-0.19525 0.33703,-0.33704 0.1906,-0.14411 0.41606,-0.22546 0.22779,-0.0814 0.48812,-0.0814 0.172,0 0.32774,0.0465 0.15573,0.0465 0.27195,0.13482 0.11854,0.086 0.18827,0.21384 0.0697,0.12784 0.0697,0.29054 0,0.23709 -0.15573,0.41374 -0.15341,0.17665 -0.42536,0.29985 -0.27195,0.12319 -0.64153,0.19989 -0.36725,0.0744 -0.79493,0.11157 v 0.0395 q 0,0.29751 0.0744,0.5439 0.0767,0.24638 0.20919,0.42303 0.13249,0.17433 0.31147,0.27195 0.17897,0.0976 0.38584,0.0976 0.2092,0 0.42769,-0.10227 0.22081,-0.1046 0.44628,-0.33704 z m -0.43698,-1.86647 q 0,-0.10692 -0.0372,-0.19989 -0.0349,-0.093 -0.1,-0.16038 -0.0628,-0.0697 -0.15109,-0.10925 -0.0883,-0.0395 -0.1906,-0.0395 -0.15108,0 -0.27427,0.0535 -0.12319,0.0535 -0.22082,0.14643 -0.0976,0.0906 -0.172,0.21384 -0.0744,0.12087 -0.12784,0.25801 -0.0511,0.13714 -0.0837,0.28125 -0.0325,0.14411 -0.0465,0.28125 0.33006,-0.0232 0.59039,-0.079 0.26265,-0.0581 0.44163,-0.14644 0.1813,-0.0906 0.2766,-0.21384 0.0953,-0.12552 0.0953,-0.2859 z"
             style="font-family:Gabriola;-inkscape-font-specification:Gabriola"
             id="path61446" />
          <path
             d="m 173.00438,156.13749 -0.0372,-0.002 q 0.0186,-0.22082 0.0349,-0.48115 0.0163,-0.26033 0.0302,-0.52763 0.0139,-0.26963 0.0232,-0.53228 0.0116,-0.26498 0.0186,-0.49277 0.009,-0.23011 0.0116,-0.41141 0.005,-0.1813 0.005,-0.2859 0,-0.086 -0.007,-0.14876 -0.007,-0.0628 -0.0325,-0.1046 -0.0232,-0.0418 -0.0697,-0.0604 -0.0465,-0.0209 -0.12552,-0.0209 -0.0395,0 -0.0813,0.005 -0.0418,0.005 -0.093,0.0139 -0.0511,0.009 -0.11622,0.0256 -0.0627,0.0139 -0.14643,0.0349 l -0.0349,-0.16735 q 0.38585,-0.13947 0.62526,-0.19525 0.23941,-0.0581 0.32309,-0.0581 0.15341,0 0.21849,0.0906 0.0674,0.0883 0.0674,0.26498 0,0.0163 -0.005,0.0953 -0.005,0.079 -0.0139,0.20687 -0.007,0.12551 -0.0186,0.29287 -0.0116,0.16735 -0.0279,0.36027 -0.0139,0.1906 -0.0325,0.3998 -0.0186,0.20686 -0.0395,0.41373 l 0.0232,0.002 q 0.11157,-0.45558 0.25103,-0.8484 0.14179,-0.39514 0.31612,-0.68569 0.17665,-0.29054 0.38584,-0.45557 0.21152,-0.16736 0.46255,-0.16736 0.0883,0 0.16503,0.0279 0.0767,0.0279 0.13249,0.079 0.0558,0.0488 0.0883,0.11855 0.0325,0.0674 0.0325,0.14876 0,0.10459 -0.0465,0.20222 -0.0442,0.0953 -0.14179,0.16968 h -0.0186 q -0.0976,-0.0814 -0.18595,-0.11622 -0.086,-0.0372 -0.18363,-0.0372 -0.10459,0 -0.20222,0.0395 -0.0976,0.0395 -0.17897,0.1139 -0.13249,0.12086 -0.24639,0.32076 -0.11389,0.19757 -0.20919,0.4393 -0.093,0.24174 -0.16968,0.50904 -0.0744,0.26498 -0.13016,0.51834 -0.0535,0.25103 -0.0883,0.47417 -0.0325,0.22081 -0.0465,0.3719 z"
             style="font-family:Gabriola;-inkscape-font-specification:Gabriola"
             id="path61448" />
          <path
             d="m 177.2882,153.6876 q 0,-0.18362 -0.0604,-0.31843 -0.0604,-0.13482 -0.15806,-0.22082 -0.0976,-0.086 -0.22081,-0.12784 -0.12319,-0.0418 -0.24638,-0.0418 -0.16503,0 -0.27893,0.0349 -0.11389,0.0349 -0.18595,0.0953 -0.0697,0.0604 -0.10227,0.14411 -0.0302,0.0814 -0.0302,0.17665 0,0.11157 0.0395,0.22546 0.0418,0.11157 0.12086,0.21849 l -0.009,0.0256 q -0.13249,0.0651 -0.26731,0.0651 -0.079,0 -0.14876,-0.0232 -0.0674,-0.0256 -0.11854,-0.072 -0.0488,-0.0465 -0.079,-0.1139 -0.0279,-0.0674 -0.0279,-0.15108 0,-0.13714 0.0651,-0.25801 0.0674,-0.12087 0.17666,-0.22081 0.10924,-0.1 0.25335,-0.17898 0.14411,-0.079 0.29752,-0.13249 0.15341,-0.0558 0.30682,-0.0837 0.15573,-0.0302 0.28822,-0.0302 0.24406,0 0.41606,0.0651 0.17433,0.0651 0.28125,0.1906 0.10925,0.12319 0.15806,0.29984 0.0511,0.17665 0.0511,0.39979 0,0.15341 -0.0139,0.33704 -0.0116,0.18362 -0.0279,0.38584 -0.0163,0.1999 -0.0302,0.41374 -0.0116,0.21384 -0.0116,0.42536 0,0.33471 0.12319,0.50439 0.12551,0.16735 0.32773,0.16735 0.17898,0 0.3998,-0.13249 l 0.0674,0.1 q -0.15573,0.15573 -0.33936,0.23709 -0.18362,0.0813 -0.38584,0.0813 -0.15108,0 -0.27893,-0.0511 -0.12784,-0.0511 -0.22081,-0.15108 -0.093,-0.10227 -0.14411,-0.25568 -0.0511,-0.15341 -0.0511,-0.35563 0,-0.0604 0.002,-0.12087 0.005,-0.0604 0.0163,-0.12784 h -0.014 q -0.0999,0.1999 -0.23244,0.39515 -0.13016,0.19292 -0.28822,0.34633 -0.15573,0.15108 -0.33471,0.24406 -0.17665,0.0953 -0.3719,0.0953 -0.16038,0 -0.29287,-0.0558 -0.13249,-0.0558 -0.22779,-0.15341 -0.093,-0.0976 -0.14643,-0.23011 -0.0511,-0.13481 -0.0511,-0.29287 0,-0.20455 0.0744,-0.3719 0.0767,-0.16736 0.2092,-0.29984 0.13481,-0.13249 0.32076,-0.22779 0.18595,-0.0976 0.40444,-0.16038 0.21849,-0.0651 0.46255,-0.0953 0.24406,-0.0325 0.49742,-0.0325 0.0163,-0.14644 0.0256,-0.28358 0.0116,-0.13714 0.0116,-0.30217 z m -1.42717,1.59685 q 0,0.0907 0.0186,0.17432 0.0209,0.0814 0.0628,0.14412 0.0442,0.0627 0.10925,0.0999 0.0674,0.0349 0.16038,0.0349 0.1046,0 0.21617,-0.0488 0.11157,-0.0488 0.21849,-0.13482 0.10924,-0.086 0.20687,-0.20454 0.0999,-0.12087 0.17897,-0.26265 0.079,-0.14179 0.13017,-0.29752 0.0535,-0.15806 0.0697,-0.32309 -0.172,0.005 -0.34168,0.0232 -0.16968,0.0163 -0.32309,0.0535 -0.15108,0.0372 -0.28125,0.0976 -0.13016,0.0604 -0.22546,0.15108 -0.093,0.0883 -0.14644,0.21152 -0.0535,0.12087 -0.0535,0.28125 z"
             style="font-family:Gabriola;-inkscape-font-specification:Gabriola"
             id="path61450" />
          <path
             d="m 179.18721,153.40403 q 0,-0.0953 -0.0139,-0.16038 -0.0139,-0.0651 -0.0442,-0.10227 -0.0279,-0.0395 -0.0721,-0.0558 -0.0442,-0.0163 -0.1046,-0.0163 -0.0837,0 -0.19989,0.0232 -0.11622,0.0232 -0.26498,0.0627 l -0.0349,-0.16735 q 0.16503,-0.0581 0.31611,-0.1046 0.15341,-0.0488 0.28125,-0.0837 0.12784,-0.0349 0.22546,-0.0535 0.0976,-0.0186 0.15341,-0.0186 0.13481,0 0.20919,0.0813 0.0767,0.079 0.0767,0.27428 0,0.0232 -0.005,0.10924 -0.005,0.0837 -0.014,0.21385 -0.007,0.13016 -0.0186,0.29984 -0.0116,0.16735 -0.0279,0.35795 -0.0139,0.1906 -0.0325,0.39515 -0.0186,0.20222 -0.0395,0.40444 l 0.0139,0.002 q 0.17665,-0.59969 0.37887,-1.0111 0.20222,-0.41374 0.41141,-0.66942 0.2092,-0.258 0.41606,-0.3719 0.20687,-0.11389 0.39515,-0.11389 0.13016,0 0.25103,0.0488 0.12087,0.0488 0.21384,0.15573 0.0953,0.10692 0.15109,0.2766 0.0558,0.16736 0.0558,0.40677 0,0.0697 -0.009,0.18827 -0.007,0.11622 -0.0186,0.26033 -0.0116,0.14411 -0.0279,0.30682 -0.0139,0.16038 -0.0256,0.31611 -0.0116,0.15573 -0.0209,0.29752 -0.007,0.13946 -0.007,0.24406 0,0.1813 0.0139,0.29519 0.0163,0.1139 0.0511,0.18131 0.0349,0.0651 0.093,0.0907 0.0581,0.0232 0.14179,0.0232 0.12087,0 0.25103,-0.0325 0.13017,-0.0349 0.26265,-0.0953 l 0.0442,0.12087 q -0.0837,0.0674 -0.21152,0.13713 -0.12784,0.0697 -0.26963,0.12784 -0.13946,0.0581 -0.27892,0.093 -0.13946,0.0372 -0.24638,0.0372 -0.12552,0 -0.19758,-0.0674 -0.072,-0.0674 -0.10924,-0.18362 -0.0349,-0.11622 -0.0465,-0.27195 -0.009,-0.15574 -0.009,-0.33471 0,-0.21849 0.0139,-0.44861 0.0163,-0.23243 0.0349,-0.44163 0.0186,-0.20919 0.0325,-0.37887 0.0163,-0.172 0.0163,-0.27428 0,-0.27195 -0.10228,-0.39979 -0.10227,-0.13016 -0.27195,-0.13016 -0.13481,0 -0.28357,0.11389 -0.14876,0.1139 -0.29752,0.31379 -0.14643,0.19757 -0.28357,0.46953 -0.13482,0.26962 -0.24406,0.58574 -0.10925,0.31379 -0.1813,0.65779 -0.0721,0.34401 -0.0907,0.68802 l -0.4858,0.0604 -0.0372,-0.002 q 0.0186,-0.22082 0.0349,-0.48115 0.0163,-0.26033 0.0302,-0.52763 0.0139,-0.26963 0.0232,-0.53228 0.0116,-0.26498 0.0186,-0.49277 0.009,-0.23011 0.0116,-0.41141 0.005,-0.1813 0.005,-0.2859 z"
             style="font-family:Gabriola;-inkscape-font-specification:Gabriola"
             id="path61452" />
          <path
             d="m 184.76569,153.68993 q 0.0651,-0.12784 0.0651,-0.26033 0,-0.0906 -0.0326,-0.16968 -0.0302,-0.0813 -0.093,-0.14179 -0.0628,-0.0627 -0.15806,-0.0976 -0.093,-0.0372 -0.21849,-0.0372 -0.1813,0 -0.32541,0.0651 -0.14411,0.0628 -0.25568,0.17433 -0.10925,0.11157 -0.18827,0.25801 -0.0767,0.14643 -0.12784,0.31379 -0.0488,0.16735 -0.0721,0.344 -0.0232,0.17433 -0.0232,0.34168 0,0.29985 0.0767,0.54623 0.079,0.24406 0.21152,0.41839 0.13249,0.172 0.30914,0.2673 0.17665,0.0953 0.37655,0.0953 0.21151,0 0.42768,-0.10925 0.21849,-0.11157 0.42304,-0.35795 0.0139,0.007 0.0349,0.0209 0.0233,0.0116 0.0418,0.0279 0.0186,0.0163 0.0325,0.0325 0.0139,0.0163 0.0139,0.0302 0,0.009 -0.002,0.0116 l -0.005,0.009 q -0.22547,0.36493 -0.54158,0.54623 -0.31612,0.1813 -0.69267,0.1813 -0.20454,0 -0.37654,-0.0581 -0.17201,-0.0558 -0.31147,-0.15573 -0.13946,-0.10228 -0.24638,-0.23941 -0.1046,-0.13947 -0.17665,-0.29985 -0.0697,-0.1627 -0.10693,-0.33936 -0.0349,-0.17897 -0.0349,-0.36027 0,-0.24406 0.0535,-0.48812 0.0535,-0.24638 0.15573,-0.47185 0.1046,-0.22779 0.25103,-0.42303 0.14876,-0.19757 0.33471,-0.34169 0.18828,-0.14643 0.41374,-0.22778 0.22547,-0.0837 0.48115,-0.0837 0.19059,0 0.35562,0.0465 0.16504,0.0465 0.28358,0.13249 0.12087,0.0837 0.18827,0.20454 0.0697,0.11854 0.0697,0.26498 0,0.0953 -0.0302,0.16968 -0.0279,0.072 -0.0814,0.12551 -0.0511,0.0511 -0.12319,0.079 -0.0697,0.0256 -0.15341,0.0256 -0.0511,0 -0.10692,-0.009 -0.0535,-0.0116 -0.10692,-0.0349 z"
             style="font-family:Gabriola;-inkscape-font-specification:Gabriola"
             id="path61454" />
          <path
             d="m 188.10117,155.3565 q 0.0139,0.007 0.0349,0.0209 0.0232,0.0116 0.0418,0.0279 0.0186,0.014 0.0325,0.0326 0.0139,0.0163 0.0139,0.0325 0,0.009 -0.007,0.0186 -0.13016,0.1813 -0.28124,0.31612 -0.14876,0.13248 -0.31147,0.22314 -0.16038,0.0883 -0.32774,0.13016 -0.16735,0.0442 -0.33006,0.0442 -0.27892,0 -0.51136,-0.11389 -0.23244,-0.1139 -0.39979,-0.31147 -0.16735,-0.19757 -0.26265,-0.46255 -0.093,-0.2673 -0.093,-0.57179 0,-0.24871 0.0535,-0.49742 0.0558,-0.2487 0.15806,-0.47417 0.1046,-0.22546 0.25336,-0.41838 0.14876,-0.19525 0.33703,-0.33704 0.1906,-0.14411 0.41606,-0.22546 0.22779,-0.0814 0.48812,-0.0814 0.172,0 0.32774,0.0465 0.15573,0.0465 0.27195,0.13482 0.11854,0.086 0.18827,0.21384 0.0697,0.12784 0.0697,0.29054 0,0.23709 -0.15573,0.41374 -0.15341,0.17665 -0.42536,0.29985 -0.27195,0.12319 -0.64153,0.19989 -0.36725,0.0744 -0.79493,0.11157 v 0.0395 q 0,0.29751 0.0744,0.5439 0.0767,0.24638 0.20919,0.42303 0.13249,0.17433 0.31147,0.27195 0.17897,0.0976 0.38584,0.0976 0.2092,0 0.42769,-0.10227 0.22081,-0.1046 0.44628,-0.33704 z m -0.43699,-1.86647 q 0,-0.10692 -0.0372,-0.19989 -0.0349,-0.093 -0.0999,-0.16038 -0.0628,-0.0697 -0.15109,-0.10925 -0.0883,-0.0395 -0.1906,-0.0395 -0.15108,0 -0.27427,0.0535 -0.12319,0.0535 -0.22082,0.14643 -0.0976,0.0906 -0.172,0.21384 -0.0744,0.12087 -0.12784,0.25801 -0.0511,0.13714 -0.0837,0.28125 -0.0325,0.14411 -0.0465,0.28125 0.33007,-0.0232 0.59039,-0.079 0.26266,-0.0581 0.44163,-0.14644 0.18131,-0.0906 0.27661,-0.21384 0.0953,-0.12552 0.0953,-0.2859 z"
             style="font-family:Gabriola;-inkscape-font-specification:Gabriola"
             id="path61456" />
        </g>
        <g
           aria-label="enter"
           id="text35882"
           style="font-size:8.88843px;line-height:1.25;font-family:Gabriola;-inkscape-font-specification:Gabriola;stroke-width:0.222211">
          <path
             d="m 164.52211,161.77152 q 0.013,0.007 0.0326,0.0195 0.0217,0.0108 0.0391,0.026 0.0174,0.013 0.0304,0.0304 0.013,0.0152 0.013,0.0304 0,0.009 -0.007,0.0174 -0.12153,0.16926 -0.26258,0.29513 -0.13888,0.12369 -0.29078,0.20832 -0.14973,0.0825 -0.30597,0.12152 -0.15625,0.0412 -0.30815,0.0412 -0.2604,0 -0.4774,-0.10633 -0.21701,-0.10633 -0.37325,-0.29078 -0.15624,-0.18446 -0.24521,-0.43184 -0.0868,-0.24955 -0.0868,-0.53383 0,-0.23219 0.0499,-0.46438 0.0521,-0.23219 0.14756,-0.44269 0.0977,-0.21049 0.23653,-0.3906 0.13888,-0.18228 0.31466,-0.31466 0.17794,-0.13454 0.38843,-0.21049 0.21266,-0.076 0.45571,-0.076 0.16058,0 0.30597,0.0434 0.14539,0.0434 0.25389,0.12586 0.11068,0.0803 0.17578,0.19964 0.0651,0.11936 0.0651,0.27126 0,0.22134 -0.1454,0.38626 -0.14322,0.16493 -0.39711,0.27994 -0.25389,0.11501 -0.59893,0.18662 -0.34286,0.0694 -0.74215,0.10416 v 0.0369 q 0,0.27776 0.0694,0.50779 0.0716,0.23002 0.19531,0.39494 0.12369,0.16275 0.29078,0.25389 0.16709,0.0911 0.36022,0.0911 0.19531,0 0.39929,-0.0955 0.20615,-0.0977 0.41664,-0.31465 z m -0.40796,-1.74253 q 0,-0.0998 -0.0347,-0.18662 -0.0326,-0.0868 -0.0933,-0.14973 -0.0586,-0.0651 -0.14105,-0.102 -0.0825,-0.0369 -0.17795,-0.0369 -0.14105,0 -0.25606,0.0499 -0.11501,0.0499 -0.20615,0.13672 -0.0911,0.0846 -0.16058,0.19964 -0.0694,0.11284 -0.11935,0.24087 -0.0478,0.12803 -0.0781,0.26257 -0.0304,0.13455 -0.0434,0.26258 0.30815,-0.0217 0.55119,-0.0738 0.24521,-0.0542 0.41231,-0.13671 0.16926,-0.0846 0.25823,-0.19965 0.089,-0.11718 0.089,-0.26691 z"
             id="path61459" />
          <path
             d="m 165.46825,159.9487 q 0,-0.089 -0.013,-0.14973 -0.013,-0.0608 -0.0412,-0.0955 -0.026,-0.0369 -0.0673,-0.0521 -0.0412,-0.0152 -0.0977,-0.0152 -0.0781,0 -0.18662,0.0217 -0.1085,0.0217 -0.24738,0.0586 l -0.0325,-0.15625 q 0.15407,-0.0542 0.29512,-0.0976 0.14322,-0.0456 0.26257,-0.0781 0.11936,-0.0325 0.2105,-0.0499 0.0911,-0.0174 0.14322,-0.0174 0.12586,0 0.1953,0.076 0.0716,0.0738 0.0716,0.25606 0,0.0217 -0.004,0.102 -0.004,0.0781 -0.013,0.19964 -0.007,0.12152 -0.0174,0.27993 -0.0109,0.15624 -0.026,0.33419 -0.013,0.17794 -0.0304,0.3689 -0.0174,0.18879 -0.0369,0.37759 l 0.013,0.002 q 0.16492,-0.55987 0.35372,-0.94397 0.18879,-0.38626 0.38409,-0.62496 0.1953,-0.24088 0.38843,-0.34721 0.19314,-0.10633 0.36891,-0.10633 0.12152,0 0.23436,0.0456 0.11284,0.0456 0.19964,0.14539 0.089,0.0998 0.14106,0.25824 0.0521,0.15624 0.0521,0.37975 0,0.0651 -0.009,0.17577 -0.007,0.1085 -0.0174,0.24305 -0.0109,0.13454 -0.026,0.28644 -0.013,0.14973 -0.0239,0.29512 -0.0109,0.14539 -0.0195,0.27777 -0.007,0.1302 -0.007,0.22785 0,0.16926 0.013,0.27559 0.0152,0.10633 0.0477,0.16926 0.0326,0.0608 0.0868,0.0846 0.0542,0.0217 0.13237,0.0217 0.11284,0 0.23436,-0.0304 0.12152,-0.0326 0.24522,-0.089 l 0.0412,0.11285 q -0.0781,0.0629 -0.19748,0.12803 -0.11935,0.0651 -0.25172,0.11935 -0.1302,0.0542 -0.2604,0.0868 -0.1302,0.0347 -0.23003,0.0347 -0.11718,0 -0.18445,-0.0629 -0.0673,-0.0629 -0.10199,-0.17143 -0.0325,-0.1085 -0.0434,-0.2539 -0.009,-0.14539 -0.009,-0.31248 0,-0.20398 0.013,-0.41881 0.0152,-0.21701 0.0326,-0.41231 0.0174,-0.1953 0.0304,-0.35371 0.0152,-0.16059 0.0152,-0.25607 0,-0.25389 -0.0955,-0.37324 -0.0955,-0.12152 -0.25389,-0.12152 -0.12586,0 -0.26475,0.10633 -0.13888,0.10633 -0.27776,0.29295 -0.13671,0.18445 -0.26474,0.43835 -0.12586,0.25172 -0.22786,0.54684 -0.10199,0.29296 -0.16926,0.61412 -0.0673,0.32117 -0.0846,0.64233 l -0.45353,0.0564 -0.0347,-0.002 q 0.0174,-0.20615 0.0325,-0.4492 0.0152,-0.24304 0.0282,-0.49259 0.013,-0.25172 0.0217,-0.49694 0.0109,-0.24738 0.0174,-0.46004 0.009,-0.21484 0.0109,-0.3841 0.004,-0.16926 0.004,-0.26691 z"
             id="path61461" />
          <path
             d="m 169.99275,157.75263 q -0.0911,0.41231 -0.15407,0.85282 -0.0608,0.43835 -0.10416,0.86584 0.10199,0.004 0.19747,0.007 0.0976,0.002 0.18011,0.004 0.0846,0.002 0.15191,0.002 0.0694,0 0.11501,0 0.19747,0 0.32333,-0.0239 0.0109,0.0369 0.0174,0.0673 0.007,0.0304 0.007,0.0564 0,0.0955 -0.0803,0.1237 -0.0781,0.0282 -0.22785,0.0282 -0.14322,0 -0.32117,-0.0174 -0.17577,-0.0174 -0.38626,-0.0326 -0.0239,0.23219 -0.0412,0.45353 -0.0152,0.21917 -0.026,0.41448 -0.009,0.1953 -0.013,0.36239 -0.004,0.16709 -0.004,0.29078 0,0.2322 0.0239,0.41448 0.0239,0.18228 0.0846,0.31031 0.0608,0.12586 0.16709,0.19314 0.10633,0.0673 0.26908,0.0673 0.11719,0 0.26041,-0.0412 0.14539,-0.0412 0.32984,-0.13238 0.0586,0.0586 0.0673,0.14323 -0.13454,0.089 -0.27125,0.16275 -0.13671,0.0716 -0.26908,0.12369 -0.13238,0.0521 -0.25607,0.0803 -0.12369,0.0282 -0.23436,0.0282 -0.14539,0 -0.26691,-0.0542 -0.11936,-0.0521 -0.20833,-0.18662 -0.0868,-0.13671 -0.13671,-0.36674 -0.0477,-0.23002 -0.0477,-0.58156 0,-0.19748 0.007,-0.4058 0.007,-0.21049 0.0174,-0.42532 0.0109,-0.21484 0.0282,-0.42967 0.0174,-0.21483 0.0391,-0.42315 -0.17143,0.002 -0.31899,0.0152 -0.14539,0.0109 -0.24955,0.0369 -0.007,-0.013 -0.007,-0.0304 0,-0.0456 0.0434,-0.0846 0.0456,-0.0412 0.12369,-0.0738 0.0803,-0.0325 0.19096,-0.0542 0.11067,-0.0217 0.24304,-0.0304 0.0499,-0.45353 0.10633,-0.85716 0.0564,-0.40362 0.11285,-0.72045 0.0109,-0.0564 0.0391,-0.0933 0.0304,-0.0369 0.0694,-0.0586 0.0391,-0.0217 0.0846,-0.0304 0.0456,-0.009 0.089,-0.009 0.0716,0 0.12803,0.0152 0.0586,0.0152 0.1085,0.0434 z"
             id="path61463" />
          <path
             d="m 173.18486,161.77152 q 0.013,0.007 0.0326,0.0195 0.0217,0.0108 0.0391,0.026 0.0174,0.013 0.0304,0.0304 0.013,0.0152 0.013,0.0304 0,0.009 -0.007,0.0174 -0.12152,0.16926 -0.26257,0.29513 -0.13888,0.12369 -0.29078,0.20832 -0.14974,0.0825 -0.30598,0.12152 -0.15624,0.0412 -0.30814,0.0412 -0.26041,0 -0.47741,-0.10633 -0.217,-0.10633 -0.37324,-0.29078 -0.15624,-0.18446 -0.24522,-0.43184 -0.0868,-0.24955 -0.0868,-0.53383 0,-0.23219 0.0499,-0.46438 0.0521,-0.23219 0.14757,-0.44269 0.0976,-0.21049 0.23653,-0.3906 0.13888,-0.18228 0.31465,-0.31466 0.17794,-0.13454 0.38844,-0.21049 0.21266,-0.076 0.4557,-0.076 0.16059,0 0.30598,0.0434 0.14539,0.0434 0.25389,0.12586 0.11067,0.0803 0.17577,0.19964 0.0651,0.11936 0.0651,0.27126 0,0.22134 -0.14539,0.38626 -0.14322,0.16493 -0.39711,0.27994 -0.2539,0.11501 -0.59893,0.18662 -0.34287,0.0694 -0.74215,0.10416 v 0.0369 q 0,0.27776 0.0694,0.50779 0.0716,0.23002 0.1953,0.39494 0.12369,0.16275 0.29079,0.25389 0.16709,0.0911 0.36022,0.0911 0.1953,0 0.39929,-0.0955 0.20615,-0.0977 0.41664,-0.31465 z m -0.40796,-1.74253 q 0,-0.0998 -0.0347,-0.18662 -0.0325,-0.0868 -0.0933,-0.14973 -0.0586,-0.0651 -0.14105,-0.102 -0.0825,-0.0369 -0.17794,-0.0369 -0.14105,0 -0.25606,0.0499 -0.11501,0.0499 -0.20616,0.13672 -0.0911,0.0846 -0.16058,0.19964 -0.0694,0.11284 -0.11935,0.24087 -0.0477,0.12803 -0.0781,0.26257 -0.0304,0.13455 -0.0434,0.26258 0.30814,-0.0217 0.55119,-0.0738 0.24521,-0.0542 0.4123,-0.13671 0.16926,-0.0846 0.25824,-0.19965 0.089,-0.11718 0.089,-0.26691 z"
             id="path61465" />
          <path
             d="m 174.0507,162.50065 -0.0347,-0.002 q 0.0174,-0.20615 0.0325,-0.4492 0.0152,-0.24304 0.0282,-0.49259 0.013,-0.25172 0.0217,-0.49694 0.0108,-0.24738 0.0174,-0.46004 0.009,-0.21484 0.0109,-0.3841 0.004,-0.16926 0.004,-0.26691 0,-0.0803 -0.007,-0.13888 -0.007,-0.0586 -0.0304,-0.0977 -0.0217,-0.0391 -0.0651,-0.0564 -0.0434,-0.0195 -0.11718,-0.0195 -0.0369,0 -0.076,0.004 -0.0391,0.004 -0.0868,0.013 -0.0477,0.009 -0.1085,0.0239 -0.0586,0.013 -0.13671,0.0326 l -0.0326,-0.15625 q 0.36023,-0.1302 0.58374,-0.18228 0.22351,-0.0542 0.30164,-0.0542 0.14322,0 0.20398,0.0846 0.0629,0.0825 0.0629,0.24738 0,0.0152 -0.004,0.089 -0.004,0.0738 -0.013,0.19313 -0.007,0.11718 -0.0174,0.27342 -0.0108,0.15624 -0.026,0.33636 -0.013,0.17794 -0.0304,0.37324 -0.0174,0.19313 -0.0369,0.38627 l 0.0217,0.002 q 0.10416,-0.42533 0.23436,-0.79206 0.13237,-0.36891 0.29512,-0.64016 0.16493,-0.27126 0.36023,-0.42533 0.19747,-0.15624 0.43183,-0.15624 0.0825,0 0.15408,0.026 0.0716,0.026 0.12369,0.0738 0.0521,0.0456 0.0825,0.11067 0.0304,0.0629 0.0304,0.13888 0,0.0977 -0.0434,0.1888 -0.0412,0.089 -0.13237,0.15841 h -0.0174 q -0.0911,-0.076 -0.17361,-0.1085 -0.0803,-0.0347 -0.17143,-0.0347 -0.0976,0 -0.18879,0.0369 -0.0911,0.0369 -0.16709,0.10633 -0.12369,0.11284 -0.23002,0.29946 -0.10634,0.18445 -0.19531,0.41014 -0.0868,0.22568 -0.15841,0.47523 -0.0694,0.24739 -0.12152,0.48392 -0.0499,0.23436 -0.0825,0.44268 -0.0304,0.20616 -0.0434,0.34721 z"
             id="path61467" />
        </g>
        <g
           aria-label="D"
           id="text41642"
           style="font-size:12.7px;line-height:1.25;font-family:Gabriola;-inkscape-font-specification:Gabriola;stroke-width:0.264583">
          <path
             d="m 155.17778,151.00337 q -0.003,0.15503 -0.009,0.46199 -0.006,0.30695 -0.0155,0.71623 -0.009,0.40618 -0.0248,0.88987 -0.0124,0.48059 -0.0279,0.98599 -0.0155,0.50229 -0.0341,1.00149 -0.0186,0.49919 -0.0372,0.94257 -0.0186,0.44339 -0.0403,0.80616 -0.0186,0.35966 -0.0372,0.58601 0.30696,0.0806 0.56431,0.10852 0.26045,0.0248 0.5116,0.0248 0.5209,0 0.93017,-0.13022 0.41238,-0.13023 0.72244,-0.36277 0.31316,-0.23565 0.5302,-0.55811 0.22014,-0.32246 0.35657,-0.70693 0.13952,-0.38447 0.20154,-0.81855 0.0651,-0.43409 0.0651,-0.88987 0,-0.68213 -0.15193,-1.24954 -0.14883,-0.56741 -0.48989,-0.97668 -0.33797,-0.40928 -0.88367,-0.63562 -0.5457,-0.22945 -1.33325,-0.22945 -0.19534,0 -0.39378,0.009 -0.19843,0.009 -0.40307,0.0248 z m -1.86966,-0.10232 q 0.32867,-0.062 0.67593,-0.11782 0.34727,-0.0589 0.70073,-0.10232 0.35347,-0.0434 0.70694,-0.0682 0.35656,-0.0279 0.70383,-0.0279 0.48369,0 0.93638,0.062 0.45578,0.0589 0.85576,0.20464 0.40308,0.14263 0.73794,0.38447 0.33486,0.23875 0.57361,0.59842 0.24184,0.35656 0.37517,0.84646 0.13332,0.48989 0.13332,1.13171 0,0.57671 -0.11472,1.10691 -0.11472,0.5271 -0.33486,0.98288 -0.22014,0.45579 -0.5395,0.82786 -0.31626,0.37207 -0.72554,0.63872 -0.40618,0.26355 -0.89917,0.40928 -0.48989,0.14263 -1.0542,0.14263 -0.29146,0 -0.59221,-0.0403 -0.30076,-0.0403 -0.62632,-0.12402 l -0.61392,0.0744 -0.0558,-0.006 q 0.0217,-0.19844 0.0465,-0.524 0.0248,-0.32866 0.0465,-0.76274 0.0248,-0.43409 0.0465,-0.96429 0.0217,-0.5333 0.0372,-1.14411 0.0186,-0.61392 0.0279,-1.29295 0.009,-0.67903 0.009,-1.41076 0,-0.14883 -0.0124,-0.26045 -0.0124,-0.11162 -0.0651,-0.18604 -0.0496,-0.0744 -0.15193,-0.11162 -0.0992,-0.0372 -0.27285,-0.0372 -0.20464,0 -0.524,0.0465 z"
             style="baseline-shift:baseline"
             id="path61470" />
        </g>
        <g
           aria-label="C"
           id="text54440"
           style="font-size:12.7px;line-height:1.25;font-family:Gabriola;-inkscape-font-specification:Gabriola;stroke-width:0.264583">
          <path
             d="m 160.13281,156.20019 q 0.40618,0 0.75034,0.0744 0.34727,0.0744 0.59842,0.18294 0.25114,0.10852 0.39377,0.23254 0.14263,0.12403 0.14263,0.22634 0,0.21395 -0.0155,0.55501 -0.0155,0.34106 -0.0403,0.82476 l -0.26975,-0.009 q 0.003,-0.0434 0.003,-0.0806 0.003,-0.0403 0.003,-0.0837 -0.003,-0.21394 -0.0496,-0.40617 -0.0434,-0.19534 -0.16123,-0.37207 -0.12402,-0.17674 -0.29766,-0.31316 -0.17053,-0.13643 -0.37517,-0.22945 -0.20464,-0.093 -0.43718,-0.13952 -0.23255,-0.0496 -0.47439,-0.0496 -0.41548,0 -0.75654,0.13022 -0.33797,0.12713 -0.60462,0.35657 -0.26665,0.22634 -0.46509,0.5395 -0.19533,0.31006 -0.32556,0.67593 -0.12712,0.36587 -0.19223,0.76894 -0.062,0.40308 -0.062,0.81546 0,0.48679 0.0806,0.91777 0.0806,0.43098 0.22944,0.79375 0.14883,0.36277 0.35967,0.65112 0.21084,0.28836 0.47129,0.4899 0.26355,0.19843 0.56741,0.30385 0.30696,0.10542 0.64492,0.10542 0.23564,0 0.48369,-0.0496 0.25115,-0.0527 0.5085,-0.16124 0.25735,-0.11162 0.51779,-0.27905 0.26355,-0.17053 0.524,-0.40617 0.0248,0.0124 0.0558,0.031 0.0341,0.0186 0.062,0.0434 0.0279,0.0217 0.0465,0.0496 0.0217,0.0279 0.0217,0.0558 0,0.0186 -0.0248,0.0527 -0.30385,0.33486 -0.61391,0.56121 -0.31006,0.22634 -0.62322,0.36586 -0.31316,0.13953 -0.63252,0.19844 -0.31626,0.062 -0.63252,0.062 -0.41858,0 -0.79995,-0.11782 -0.37827,-0.11472 -0.70383,-0.33176 -0.32556,-0.21704 -0.58911,-0.524 -0.26355,-0.31006 -0.44959,-0.69453 -0.18603,-0.38447 -0.28835,-0.83406 -0.0992,-0.45268 -0.0992,-0.95498 0,-0.48369 0.0961,-0.97048 0.0992,-0.4899 0.29145,-0.93638 0.19534,-0.44648 0.48679,-0.83406 0.29456,-0.38757 0.68523,-0.67282 0.39068,-0.28836 0.88057,-0.44959 0.48989,-0.16433 1.079,-0.16433 z"
             id="path61473" />
        </g>
      </g>
    </g>
  </g>
  <g
     inkscape:groupmode="layer"
     id="layer3"
     inkscape:label="burst">
    <path
       style="fill:#000000;stroke-width:0.264583"
       d="m 170.36304,85.969141 c -0.2325,-0.730627 -0.96573,-10.255743 -0.809,-10.50934 0.0926,-0.14981 0.38826,-0.27237 0.65706,-0.27237 0.5487,0 0.6061,0.30649 1.0654,5.68851 0.14902,1.746238 0.33683,3.680999 0.41734,4.299456 0.13949,1.071401 0.11403,1.124471 -0.53958,1.124471 -0.37728,0 -0.73333,-0.148827 -0.79122,-0.330727 z m 12.90731,-7.199318 c -0.65653,-0.28557 -0.80909,-0.486067 -0.69675,-0.915687 0.16354,-0.625364 0.45,-0.670984 1.63015,-0.259587 0.86307,0.300867 0.94342,0.437427 0.67263,1.143094 -0.19397,0.505467 -0.50365,0.511677 -1.60603,0.0322 z m -4.84795,-1.722451 c -1.2971,-0.477357 -2.01588,-0.889824 -2.07534,-1.190934 -0.18228,-0.923134 0.38513,-0.938374 2.8259,-0.0759 2.05913,0.727637 2.42806,0.944584 2.36585,1.391234 -0.1043,0.748794 -0.82145,0.720164 -3.11641,-0.12442 z m -4.69636,-1.807291 c -1.6502,-0.663864 -1.85928,-0.905474 -1.40493,-1.623521 0.20388,-0.322217 0.4928,-0.281417 1.89304,0.26733 1.77513,0.695667 2.02182,0.959984 1.49983,1.607041 -0.30028,0.372237 -0.50254,0.346717 -1.98794,-0.25085 z M 154.295,73.461433 c -0.0762,-0.0762 -0.088,-0.4036 -0.0263,-0.727597 0.10228,-0.537117 0.239,-0.581097 1.54962,-0.498467 1.31705,0.083 1.43745,0.14399 1.43745,0.727607 0,0.593274 -0.0968,0.636964 -1.41111,0.636964 -0.77612,0 -1.47344,-0.0623 -1.54963,-0.138507 z m 5.87115,-0.522947 c 0,-0.620207 0.0853,-0.661457 1.36701,-0.661457 0.75186,0 1.27854,-0.0893 1.1704,-0.19843 -0.10813,-0.10915 -2.3604,-0.860621 -5.00503,-1.669951 -4.55822,-1.39493 -4.80469,-1.50422 -4.73658,-2.10032 0.0395,-0.34585 0.10225,-0.65921 0.13939,-0.69636 0.10031,-0.1003 13.37454,4.007444 13.56474,4.197634 0.0896,0.0896 0.083,0.415037 -0.0148,0.723124 -0.12551,0.39546 -0.32711,0.518017 -0.68561,0.41682 -0.27931,-0.0788 -0.74596,-0.2109 -1.037,-0.29347 -0.40694,-0.11545 -0.52917,-0.0238 -0.52917,0.396867 0,0.507357 -0.15339,0.546997 -2.11666,0.546997 -2.08139,0 -2.11667,-0.011 -2.11667,-0.661454 z m 12.27308,-0.754237 c -0.0851,-0.269307 -0.0537,-0.582337 0.0699,-0.695627 0.1236,-0.113284 1.50465,-0.267064 3.069,-0.341734 l 2.84427,-0.13577 v 0.748744 0.748734 l -2.91418,0.0827 c -2.64453,0.075 -2.9285,0.0373 -3.06899,-0.406997 z m 7.57067,-0.421887 c 0,-0.794924 0.0221,-0.808244 1.34049,-0.808244 1.30626,0 1.33835,0.0186 1.25677,0.727604 -0.0767,0.666317 -0.18958,0.734397 -1.34049,0.808244 -1.24263,0.0797 -1.25677,0.0716 -1.25677,-0.727604 z m -8.69894,-1.648574 c -0.32242,-0.51628 -0.29483,-0.6229 0.26709,-1.03232 0.34465,-0.25111 2.64922,-2.0738 5.12125,-4.05041 4.46164,-3.56747 4.49842,-3.59004 5.01239,-3.07608 0.28477,0.28478 0.46485,0.55803 0.40017,0.60723 -0.0647,0.0492 -2.40186,1.89798 -5.19373,4.10839 -2.79188,2.21041 -5.11473,4.01893 -5.16188,4.01893 -0.0471,0 -0.24753,-0.25908 -0.44529,-0.57574 z m -4.1804,-3.19457 c -0.15404,-0.90951 -0.266,-1.67177 -0.2488,-1.69392 0.0172,-0.0221 0.32238,-0.0817 0.67819,-0.13229 0.68245,-0.0971 0.65763,-0.15281 1.16643,2.61996 0.14717,0.80205 0.10822,0.8599 -0.57898,0.8599 -0.6975,0 -0.75169,-0.0881 -1.01684,-1.65365 z m 2.62577,1.43495 c -0.26215,-0.16645 -0.2442,-0.46734 0.0857,-1.43541 0.37193,-1.09156 0.47999,-1.20089 0.99314,-1.00482 0.61147,0.23363 0.66146,0.72834 0.19704,1.94985 -0.27323,0.71863 -0.67382,0.87261 -1.27584,0.49038 z m -20.30371,-0.4166 c -1.05111,-0.30503 -1.38472,-0.78644 -0.97948,-1.41339 0.16894,-0.26135 0.4541,-0.25777 1.38873,0.0175 0.92986,0.27382 1.15767,0.4535 1.08789,0.85806 -0.13612,0.78921 -0.35729,0.86868 -1.49714,0.53789 z m 21.75988,-3.51584 c -0.25466,-0.0666 -0.46302,-0.19397 -0.46302,-0.28316 0,-0.24039 1.10201,-4.1497 1.19945,-4.25497 0.18597,-0.20091 1.18186,0.28006 1.18264,0.57116 0.002,0.55326 -1.13056,4.15045 -1.29615,4.11866 -0.088,-0.0169 -0.36826,-0.0851 -0.62292,-0.15169 z m -4.80862,-2.13272 c -0.0948,-0.69122 -0.23344,-1.56872 -0.3081,-1.94999 -0.10923,-0.55781 -0.0177,-0.72409 0.46848,-0.85123 0.33232,-0.0869 0.68683,-0.0726 0.7878,0.0318 0.10098,0.10437 0.26724,1.05297 0.36948,2.108 l 0.1859,1.91823 h -0.66561 c -0.59347,0 -0.68428,-0.13619 -0.83795,-1.25677 z m 16.85277,-1.37248 c -0.28452,-0.4556 -0.17734,-0.61739 0.96399,-1.45521 1.46625,-1.07632 1.75201,-1.13703 2.11955,-0.45027 0.22356,0.41772 0.0516,0.6383 -1.13453,1.45521 -0.76892,0.52957 -1.44998,0.96286 -1.51346,0.96286 -0.0635,0 -0.25948,-0.23067 -0.43555,-0.51259 z m -10.45681,-1.78814 c -0.35439,-0.0913 -0.42348,-0.28574 -0.29415,-0.82756 0.23733,-0.99428 0.3265,-1.10505 0.88962,-1.10505 0.6691,0 0.81025,0.29637 0.56963,1.19606 -0.21364,0.79885 -0.41921,0.9288 -1.1651,0.73655 z"
       id="path1680" />
  </g>
</svg>
